<svg width="40" height="40" viewBox="0 0 40 40" fill="none" xmlns="http://www.w3.org/2000/svg">
<path d="M14.216 27.7122C7.82713 27.7122 2.64795 22.533 2.64795 16.1442C2.64795 9.75535 7.82713 4.57617 14.216 4.57617C18.9583 4.57617 23.0341 7.42985 24.82 11.5137M37.3521 23.8562C37.3521 30.2451 32.1728 35.4243 25.784 35.4243C20.7405 35.4243 16.4507 32.1966 14.8679 27.6941C14.4456 26.4932 14.216 25.2016 14.216 23.8562C14.216 17.6862 19.0466 12.6443 25.1322 12.3063C25.3479 12.2943 25.5652 12.2882 25.784 12.2882C32.1728 12.2882 37.3521 17.4674 37.3521 23.8562Z" stroke="white" stroke-width="3" stroke-linecap="square"/>
</svg>
