<svg width="18" height="18" viewBox="0 0 18 18" fill="none" xmlns="http://www.w3.org/2000/svg">
<g opacity="0.5">
<path d="M8.62207 15.2682C12.2926 15.2682 15.2682 12.2926 15.2682 8.62207C15.2682 4.95149 12.2926 1.97589 8.62207 1.97589M8.62207 15.2682C4.95149 15.2682 1.97589 12.2926 1.97589 8.62207C1.97589 4.95149 4.95149 1.97589 8.62207 1.97589M8.62207 15.2682C6.93559 15.2682 5.56842 12.2926 5.56842 8.62207C5.56842 4.95149 6.93559 1.97589 8.62207 1.97589M8.62207 15.2682C10.3085 15.2682 11.6757 12.2926 11.6757 8.62207C11.6757 4.95149 10.3085 1.97589 8.62207 1.97589M15.0886 8.62207H2.15552" stroke="white" stroke-width="1.07776" stroke-linecap="square"/>
</g>
</svg>
