<svg width="18" height="18" viewBox="0 0 18 18" fill="none" xmlns="http://www.w3.org/2000/svg">
<g opacity="0.4" clip-path="url(#clip0_1500_19194)">
<path d="M14.6482 3.81819C13.5349 3.29725 12.357 2.9271 11.1458 2.71753C10.9949 2.99029 10.8187 3.35715 10.6971 3.64901C9.39119 3.45265 8.09729 3.45265 6.81539 3.64901C6.69389 3.35722 6.51365 2.99029 6.36138 2.71753C5.14898 2.9272 3.97011 3.29829 2.85622 3.8209C0.639652 7.17049 0.0387571 10.4368 0.339171 13.6569C1.80934 14.7547 3.23409 15.4217 4.63483 15.8581C4.98295 15.3794 5.29068 14.8725 5.55484 14.3428C5.05191 14.1514 4.56707 13.9154 4.10609 13.6378C4.2274 13.5478 4.34586 13.4541 4.46128 13.3568C7.25467 14.6633 10.2898 14.6633 13.0499 13.3568C13.1659 13.4535 13.2843 13.5472 13.4051 13.6378C12.9433 13.9161 12.4576 14.1526 11.9537 14.3442C12.2193 14.8761 12.5265 15.3834 12.8737 15.8594C14.2757 15.4231 15.7018 14.7561 17.172 13.6569C17.5245 9.92402 16.5698 6.68771 14.6482 3.81819ZM5.93543 11.6766C5.09686 11.6766 4.40915 10.8937 4.40915 9.9404C4.40915 8.9871 5.0822 8.20291 5.93543 8.20291C6.78873 8.20291 7.47636 8.98571 7.46171 9.9404C7.46303 10.8937 6.78873 11.6766 5.93543 11.6766ZM11.5757 11.6766C10.7372 11.6766 10.0495 10.8937 10.0495 9.9404C10.0495 8.9871 10.7225 8.20291 11.5757 8.20291C12.429 8.20291 13.1167 8.98571 13.102 9.9404C13.102 10.8937 12.429 11.6766 11.5757 11.6766Z" fill="white"/>
</g>
<defs>
<clipPath id="clip0_1500_19194">
<rect width="17.2441" height="17.6321" fill="white"/>
</clipPath>
</defs>
</svg>
