<svg width="100" height="100" viewBox="0 0 100 100" fill="none" xmlns="http://www.w3.org/2000/svg">
<rect width="100" height="100" rx="50" fill="#282828"/>
<path d="M30.4943 30.233C30.4943 25.9239 33.9875 22.4306 38.2966 22.4306H61.7033C66.0124 22.4306 69.5057 25.9239 69.5057 30.233C69.5057 34.5422 66.0124 38.0354 61.7033 38.0354H38.2966C33.9875 38.0354 30.4943 34.5422 30.4943 30.233Z" fill="white"/>
<path d="M30.4943 50.0016C30.4943 45.6925 33.9875 42.1992 38.2966 42.1992H56.5158C60.825 42.1992 64.3182 45.6925 64.3182 50.0016C64.3182 54.3108 60.825 57.804 56.5158 57.804H38.2966C33.9875 57.804 30.4943 54.3108 30.4943 50.0016Z" fill="white"/>
<path d="M30.4943 69.767C30.4943 65.4581 33.9873 61.9646 38.2963 61.9646C42.6052 61.9646 46.0983 65.4581 46.0983 69.767C46.0983 74.076 42.6052 77.5694 38.2963 77.5694C33.9873 77.5694 30.4943 74.076 30.4943 69.767Z" fill="white"/>
</svg>
