<svg width="32" height="32" viewBox="0 0 32 32" fill="none" xmlns="http://www.w3.org/2000/svg">
<path fill-rule="evenodd" clip-rule="evenodd" d="M26.73 3.95995C27.2768 3.95995 27.72 4.40319 27.72 4.94995V26.7299C27.72 27.2767 27.2768 27.7199 26.73 27.7199H4.95002C4.40326 27.7199 3.96002 27.2767 3.96002 26.7299V4.94995C3.96002 4.40319 4.40326 3.95995 4.95002 3.95995H26.73ZM11.26 16.5399C10.8734 16.1534 10.2467 16.1534 9.86007 16.5399L5.94002 20.4599V25.7399H20.46L11.26 16.5399ZM19.8 8.57995C17.9775 8.57995 16.5 10.0574 16.5 11.8799C16.5 13.7025 17.9775 15.1799 19.8 15.1799C21.6225 15.1799 23.1 13.7025 23.1 11.8799C23.1 10.0574 21.6225 8.57995 19.8 8.57995Z" fill="white"/>
</svg>
