<svg width="32" height="32" viewBox="0 0 32 32" fill="none" xmlns="http://www.w3.org/2000/svg">
<path d="M16 0C24.8364 8.11638e-05 31.9999 7.16357 32 16C31.9999 24.8364 24.8364 31.9999 16 32C7.16357 31.9999 8.11691e-05 24.8364 0 16C5.47358e-05 7.16355 7.16355 5.47287e-05 16 0ZM16 1.54297C8.01595 1.54302 1.54302 8.01595 1.54297 16C1.54305 23.984 8.01597 30.457 16 30.457C23.984 30.4569 30.4569 23.984 30.457 16C30.457 8.01597 23.984 1.54305 16 1.54297ZM16 21.5098C16.594 21.5098 17.0751 21.991 17.0752 22.585C17.0752 23.179 16.594 23.6611 16 23.6611C15.406 23.6611 14.9248 23.179 14.9248 22.585C14.9249 21.991 15.406 21.5098 16 21.5098ZM16.7715 17.6465H15.2285V7.76855H16.7715V17.6465Z" fill="white"/>
</svg>
