<?xml version="1.0" encoding="UTF-8"?>
<svg width="3300px" height="2200px" viewBox="0 0 3300 2200" version="1.1" xmlns="http://www.w3.org/2000/svg" xmlns:xlink="http://www.w3.org/1999/xlink">
    <title>kin.fill</title>
    <g id="Page-1" stroke="none" stroke-width="1" fill="none" fill-rule="evenodd">
        <g id="kin.large">
            <g id="Notes">
                <rect id="artboard" fill="#FFFFFF" fill-rule="nonzero" x="0" y="0" width="3300" height="2200"></rect>
                <line x1="263" y1="292" x2="3036" y2="292" id="Path" stroke="#000000" stroke-width="0.5"></line>
                <text id="Weight/Scale-Variations" fill="#000000" fill-rule="nonzero" font-family="Helvetica-Bold, Helvetica" font-size="13" font-weight="bold">
                    <tspan x="263" y="322">Weight/Scale Variations</tspan>
                </text>
                <text id="Ultralight" fill="#000000" fill-rule="nonzero" font-family="Helvetica" font-size="13" font-weight="normal">
                    <tspan x="533.711" y="322">Ultralight</tspan>
                </text>
                <text id="Thin" fill="#000000" fill-rule="nonzero" font-family="Helvetica" font-size="13" font-weight="normal">
                    <tspan x="843.422" y="322">Thin</tspan>
                </text>
                <text id="Light" fill="#000000" fill-rule="nonzero" font-family="Helvetica" font-size="13" font-weight="normal">
                    <tspan x="1138.63" y="322">Light</tspan>
                </text>
                <text id="Regular" fill="#000000" fill-rule="nonzero" font-family="Helvetica" font-size="13" font-weight="normal">
                    <tspan x="1426.84" y="322">Regular</tspan>
                </text>
                <text id="Medium" fill="#000000" fill-rule="nonzero" font-family="Helvetica" font-size="13" font-weight="normal">
                    <tspan x="1723.06" y="322">Medium</tspan>
                </text>
                <text id="Semibold" fill="#000000" fill-rule="nonzero" font-family="Helvetica" font-size="13" font-weight="normal">
                    <tspan x="2015.77" y="322">Semibold</tspan>
                </text>
                <text id="Bold" fill="#000000" fill-rule="nonzero" font-family="Helvetica" font-size="13" font-weight="normal">
                    <tspan x="2326.48" y="322">Bold</tspan>
                </text>
                <text id="Heavy" fill="#000000" fill-rule="nonzero" font-family="Helvetica" font-size="13" font-weight="normal">
                    <tspan x="2618.19" y="322">Heavy</tspan>
                </text>
                <text id="Black" fill="#000000" fill-rule="nonzero" font-family="Helvetica" font-size="13" font-weight="normal">
                    <tspan x="2917.4" y="322">Black</tspan>
                </text>
                <line x1="263" y1="1903" x2="3036" y2="1903" id="Path" stroke="#000000" stroke-width="0.5"></line>
                <g id="Group" transform="translate(264.000000, 1918.000000)" fill="#000000" fill-rule="nonzero">
                    <path d="M8.24805,15.830078 C12.5547,15.830078 16.1387,12.25586 16.1387,7.94922 C16.1387,3.6426 12.5449,0.0684 8.23828,0.0684 C3.94141,0.0684 0.36719,3.6426 0.36719,7.94922 C0.36719,12.25586 3.95117,15.830078 8.24805,15.830078 Z M8.24805,14.345703 C4.70312,14.345703 1.87109,11.50391 1.87109,7.94922 C1.87109,4.3945 4.69336,1.5527 8.23828,1.5527 C11.793,1.5527 14.6348,4.3945 14.6445252,7.94922 C14.6543,11.50391 11.8027,14.345703 8.24805,14.345703 Z M8.22852,11.57227 C8.69727,11.57227 8.9707,11.25977 8.9707,10.74219 L8.9707,8.68164 L11.1973,8.68164 C11.6953,8.68164 12.0371,8.42773 12.0371,7.95898 C12.0371,7.48047 11.7148,7.2168 11.1973,7.2168 L8.9707,7.2168 L8.9707,4.9902 C8.9707,4.4727 8.69727,4.1504 8.22852,4.1504 C7.75977,4.1504 7.50586,4.4922 7.50586,4.9902 L7.50586,7.2168 L5.29883,7.2168 C4.78125,7.2168 4.44922,7.48047 4.44922,7.95898 C4.44922,8.42773 4.80078,8.68164 5.29883,8.68164 L7.50586,8.68164 L7.50586,10.74219 C7.50586,11.24023 7.75977,11.57227 8.22852,11.57227 Z" id="Shape"></path>
                </g>
                <g id="Group" transform="translate(282.506000, 1915.000000)" fill="#000000" fill-rule="nonzero">
                    <path d="M10.709,20.91016 C16.1582,20.91016 20.6699,16.39844 20.6699,10.94922 C20.6699,5.5098 16.1484,0.9883 10.6992,0.9883 C5.25977,0.9883 0.74805,5.5098 0.74805,10.94922 C0.74805,16.39844 5.26953,20.91016 10.709,20.91016 Z M10.709,19.25 C6.09961,19.25 2.41797,15.55859 2.41797,10.94922 C2.41797,6.3496 6.08984,2.6484 10.6992,2.6484 C15.3086,2.6484 19,6.3496 19.009819,10.94922 C19.0195,15.55859 15.3184,19.25 10.709,19.25 Z M10.6895,15.58789 C11.207,15.58789 11.5195,15.22656 11.5195,14.66016 L11.5195,11.76953 L14.5762,11.76953 C15.123,11.76953 15.5039,11.48633 15.5039,10.96875 C15.5039,10.44141 15.1426,10.13867 14.5762,10.13867 L11.5195,10.13867 L11.5195,7.0723 C11.5195,6.4961 11.207,6.1445 10.6895,6.1445 C10.1719,6.1445 9.8789,6.5156 9.8789,7.0723 L9.8789,10.13867 L6.83203,10.13867 C6.26562,10.13867 5.89453,10.44141 5.89453,10.96875 C5.89453,11.48633 6.28516,11.76953 6.83203,11.76953 L9.8789,11.76953 L9.8789,14.66016 C9.8789,15.20703 10.1719,15.58789 10.6895,15.58789 Z" id="Shape"></path>
                </g>
                <g id="Group" transform="translate(306.924000, 1913.000000)" fill="#000000" fill-rule="nonzero">
                    <path d="M12.9707,25.67383 C19.9336,25.67383 25.6953,19.921875 25.6953,12.95898 C25.6953,5.9961 19.9238,0.2441 12.9609,0.2441 C6.00781,0.2441 0.25586,5.9961 0.25586,12.95898 C0.25586,19.921875 6.01758,25.67383 12.9707,25.67383 Z M12.9707,23.85742 C6.93555,23.85742 2.08203,18.99414 2.08203,12.95898 C2.08203,6.9238 6.92578,2.0605 12.9609,2.0605 C19.0059,2.0605 23.8594,6.9238 23.8691148,12.95898 C23.8789,18.99414 19.0156,23.85742 12.9707,23.85742 Z M12.9512,18.93555 C13.5176,18.93555 13.8691,18.54492 13.8691,17.93945 L13.8691,13.86719 L18.1074,13.86719 C18.6934,13.86719 19.1133,13.53516 19.1133,12.97852 C19.1133,12.40234 18.7227,12.06055 18.1074,12.06055 L13.8691,12.06055 L13.8691,7.8125 C13.8691,7.1973 13.5176,6.8066 12.9512,6.8066 C12.3848,6.8066 12.0625,7.2168 12.0625,7.8125 L12.0625,12.06055 L7.83398,12.06055 C7.21875,12.06055 6.80859,12.40234 6.80859,12.97852 C6.80859,13.53516 7.23828,13.86719 7.83398,13.86719 L12.0625,13.86719 L12.0625,17.93945 C12.0625,18.52539 12.3848,18.93555 12.9512,18.93555 Z" id="Shape"></path>
                </g>
                <text id="Design-Variations" fill="#000000" fill-rule="nonzero" font-family="Helvetica-Bold, Helvetica" font-size="13" font-weight="bold">
                    <tspan x="263" y="1953">Design Variations</tspan>
                </text>
                <text id="Symbols-are-supported-in-up-to-nine-weights-and-three-scales." fill="#000000" fill-rule="nonzero" font-family="Helvetica" font-size="13" font-weight="normal">
                    <tspan x="263" y="1971">Symbols are supported in up to nine weights and three scales.</tspan>
                </text>
                <text id="For-optimal-layout-with-text-and-other-symbols,-vertically-align" fill="#000000" fill-rule="nonzero" font-family="Helvetica" font-size="13" font-weight="normal">
                    <tspan x="263" y="1989">For optimal layout with text and other symbols, vertically align</tspan>
                </text>
                <text id="symbols-with-the-adjacent-text." fill="#000000" fill-rule="nonzero" font-family="Helvetica" font-size="13" font-weight="normal">
                    <tspan x="263" y="2007">symbols with the adjacent text.</tspan>
                </text>
                <rect id="Rectangle" fill="#00AEEF" fill-rule="nonzero" opacity="0.4" x="776" y="1919" width="3" height="14"></rect>
                <g id="Group" transform="translate(779.000000, 1918.000000)" fill="#000000" fill-rule="nonzero">
                    <path d="M10.5273,15 L12.373,15 L7.17773,0.9082 L5.43945,0.9082 L0.244141,15 L2.08984,15 L3.50586,10.9668 L9.11133,10.9668 L10.5273,15 Z M6.2793,3.0469 L6.33789,3.0469 L8.59375,9.47266 L4.02344,9.47266 L6.2793,3.0469 Z" id="Shape"></path>
                </g>
                <rect id="Rectangle" fill="#00AEEF" fill-rule="nonzero" opacity="0.4" x="791.617" y="1919" width="3" height="14"></rect>
                <text id="Margins" fill="#000000" fill-rule="nonzero" font-family="Helvetica-Bold, Helvetica" font-size="13" font-weight="bold">
                    <tspan x="776" y="1953">Margins</tspan>
                </text>
                <text id="Leading-and-trailing-margins-on-the-left-and-right-side-of-each-symbol" fill="#000000" fill-rule="nonzero" font-family="Helvetica" font-size="13" font-weight="normal">
                    <tspan x="776" y="1971">Leading and trailing margins on the left and right side of each symbol</tspan>
                </text>
                <text id="can-be-adjusted-by-modifying-the-width-of-the-blue-rectangles." fill="#000000" fill-rule="nonzero" font-family="Helvetica" font-size="13" font-weight="normal">
                    <tspan x="776" y="1989">can be adjusted by modifying the width of the blue rectangles.</tspan>
                </text>
                <text id="Modifications-are-automatically-applied-proportionally-to-all" fill="#000000" fill-rule="nonzero" font-family="Helvetica" font-size="13" font-weight="normal">
                    <tspan x="776" y="2007">Modifications are automatically applied proportionally to all</tspan>
                </text>
                <text id="scales-and-weights." fill="#000000" fill-rule="nonzero" font-family="Helvetica" font-size="13" font-weight="normal">
                    <tspan x="776" y="2025">scales and weights.</tspan>
                </text>
                <g id="Group" transform="translate(1291.000000, 1915.000000)" fill="#000000" fill-rule="nonzero">
                    <path d="M0.83203,21.11523 L2.375,22.6582 C3.22461,23.48828 4.19141,23.41992 5.06055,22.46289 L15.2754,11.33984 C15.7051,11.63281 16.0957,11.62305 16.5645,11.52539 L17.6094,11.31055 L18.3027,12.00391 L18.2539,12.52148 C18.1855,13.04883 18.3516,13.46875 18.8496,13.9668 L19.6602,14.77734 C20.168,15.28516 20.8223,15.31445 21.3008,14.83594 L24.5527,11.58398 C25.0312,11.10547 25.0117,10.45117 24.5039,9.94336 L23.6836,9.12305 C23.1855,8.625 22.7754,8.44922 22.2383,8.52734 L21.7109,8.58594 L21.0566,7.9219 L21.3398,6.7793 C21.4863,6.2129 21.3398,5.7441 20.7148,5.1387 L18.3027,2.7461 C14.7578,-0.7793 10.2266,-0.6719 7.11133,2.4629 C6.69141,2.8926 6.64258,3.4785 6.91602,3.9082 C7.15039,4.2793 7.62891,4.5039 8.2734,4.3379 C9.7871,3.957 11.3008,4.0742 12.7852,5.0801 L12.1602,6.6621 C11.9258,7.248 11.9453,7.7266 12.1797,8.16602 L1.01758,18.439453 C0.08008,19.30859 -0.02734,20.25586 0.83203,21.11523 Z M8.6738,2.8535 C11.3398,0.8613 14.6504,1.1738 17.0527,3.5859 L19.6797,6.1934 C19.9141,6.4277 19.9434,6.6133 19.8848,6.9062 L19.5039,8.46875 L21.0762,10.04102 L22.043,9.95312 C22.3262,9.92383 22.4141,9.94336 22.6387,10.16797 L23.2637,10.79297 L20.5098,13.53711 L19.8848,12.92188 C19.6602,12.69727 19.6406,12.59961 19.6699,12.31641 L19.7578,11.35938 L18.1953,9.79688 L16.5742,10.10938 C16.291,10.16797 16.1445,10.16797 15.9102,9.92383 L13.7324,7.7461 C13.5078,7.5117 13.4785,7.375 13.6055,7.0527 L14.5527,4.7773 C12.9512,3.2441 10.8418,2.3945 8.8008,3.0488 C8.7129,3.0781 8.6445,3.0586 8.6152,3.0195 C8.5859,2.9707 8.5859,2.9219 8.6738,2.8535 Z M2.10156,20.41211 C1.61328,19.91406 1.78906,19.61133 2.12109,19.30859 L13.0781,9.19141 L14.3086,10.42188 L4.15234,21.34961 C3.84961,21.68164 3.46875,21.7793 3.06836,21.37891 L2.10156,20.41211 Z" id="Shape"></path>
                </g>
                <text id="Exporting" fill="#000000" fill-rule="nonzero" font-family="Helvetica-Bold, Helvetica" font-size="13" font-weight="bold">
                    <tspan x="1289" y="1953">Exporting</tspan>
                </text>
                <text id="Symbols-should-be-outlined-when-exporting-to-ensure-the" fill="#000000" fill-rule="nonzero" font-family="Helvetica" font-size="13" font-weight="normal">
                    <tspan x="1289" y="1971">Symbols should be outlined when exporting to ensure the</tspan>
                </text>
                <text id="design-is-preserved-when-submitting-to-Xcode." fill="#000000" fill-rule="nonzero" font-family="Helvetica" font-size="13" font-weight="normal">
                    <tspan x="1289" y="1989">design is preserved when submitting to Xcode.</tspan>
                </text>
                <text id="template-version" fill="#000000" fill-rule="nonzero" font-family="Helvetica" font-size="13" font-weight="normal">
                    <tspan x="2952" y="1933">Template v.1.0</tspan>
                </text>
                <text id="Generated-from-bubble.left.fill" fill="#000000" fill-rule="nonzero" font-family="Helvetica" font-size="13" font-weight="normal">
                    <tspan x="2865" y="1951">Generated from bubble.left.fill</tspan>
                </text>
                <text id="Typeset-at-100-points" fill="#000000" fill-rule="nonzero" font-family="Helvetica" font-size="13" font-weight="normal">
                    <tspan x="2912" y="1969">Typeset at 100 points</tspan>
                </text>
                <text id="Small" fill="#000000" fill-rule="nonzero" font-family="Helvetica" font-size="13" font-weight="normal">
                    <tspan x="263" y="726">Small</tspan>
                </text>
                <text id="Medium" fill="#000000" fill-rule="nonzero" font-family="Helvetica" font-size="13" font-weight="normal">
                    <tspan x="263" y="1156">Medium</tspan>
                </text>
                <text id="Large" fill="#000000" fill-rule="nonzero" font-family="Helvetica" font-size="13" font-weight="normal">
                    <tspan x="263" y="1586">Large</tspan>
                </text>
            </g>
            <g id="Guides" transform="translate(263.000000, 625.000000)">
                <g id="H-reference" transform="translate(76.000000, 0.000000)" fill="#27AAE1" fill-rule="nonzero">
                    <path d="M54.9316,71 L57.666,71 L30.5664,0.541 L28.0762,0.541 L0.976562,71 L3.66211,71 L12.9395,46.5371 L45.7031,46.5371 L54.9316,71 Z M29.1992,3.9102 L29.4434,3.9102 L44.8242,44.291 L13.8184,44.291 L29.1992,3.9102 Z" id="Shape"></path>
                </g>
                <line x1="0" y1="71" x2="2773" y2="71" id="Baseline-S" stroke="#27AAE1" stroke-width="0.577"></line>
                <line x1="0" y1="0.541" x2="2773" y2="0.541" id="Capline-S" stroke="#27AAE1" stroke-width="0.577"></line>
                <g id="H-reference" transform="translate(76.000000, 430.000000)" fill="#27AAE1" fill-rule="nonzero">
                    <path d="M54.9316,71 L57.666,71 L30.5664,0.541 L28.0762,0.541 L0.976562,71 L3.66211,71 L12.9395,46.5371 L45.7031,46.5371 L54.9316,71 Z M29.1992,3.9102 L29.4434,3.9102 L44.8242,44.291 L13.8184,44.291 L29.1992,3.9102 Z" id="Shape"></path>
                </g>
                <line x1="0" y1="501" x2="2773" y2="501" id="Baseline-M" stroke="#27AAE1" stroke-width="0.577"></line>
                <line x1="0" y1="430.54" x2="2773" y2="430.54" id="Capline-M" stroke="#27AAE1" stroke-width="0.577"></line>
                <g id="H-reference" transform="translate(76.000000, 860.000000)" fill="#27AAE1" fill-rule="nonzero">
                    <path d="M54.9316,71 L57.666,71 L30.5664,0.541 L28.0762,0.541 L0.976562,71 L3.66211,71 L12.9395,46.5371 L45.7031,46.5371 L54.9316,71 Z M29.1992,3.9102 L29.4434,3.9102 L44.8242,44.291 L13.8184,44.291 L29.1992,3.9102 Z" id="Shape"></path>
                </g>
                <line x1="0" y1="931" x2="2773" y2="931" id="Baseline-L" stroke="#27AAE1" stroke-width="0.577"></line>
                <line x1="0" y1="860.54" x2="2773" y2="860.54" id="Capline-L" stroke="#27AAE1" stroke-width="0.577"></line>
                <rect id="left-margin" fill="#00AEEF" fill-rule="nonzero" opacity="0.4" x="1141.58" y="405.79" width="12.4512" height="119.336"></rect>
                <rect id="right-margin" fill="#00AEEF" fill-rule="nonzero" opacity="0.4" x="1219.65" y="405.79" width="12.4512" height="119.336"></rect>
            </g>
            <g id="Symbols" transform="translate(528.000000, 624.000000)" fill="#000000" fill-rule="nonzero">
                <g id="Black-L" transform="translate(2368.240000, 860.000000)">
                    <path d="M60.5496048,23.789664 L67.0526322,23.789664 C70.201906,23.789664 72.754301,21.237336 72.754301,18.088092 L72.754301,0.02842254 C72.754301,0.011369016 72.7427811,0 72.7258611,0 L53.4212587,0 C50.2835048,0 47.7368698,2.5466616 47.7368698,5.684508 L47.7368698,12.210336 C47.7368698,19.088568 42.0467209,24.64236 35.1114784,24.409296 C28.4833513,24.187572 23.3218254,18.525816 23.3218254,11.8863 L23.3218254,5.712948 C23.3218254,2.5580304 20.7638143,0 17.6089245,0 L0.788483537,0 C0.771430046,0 0.760061035,0.011369016 0.760061035,0.02842254 L0.760061035,36 L0.760061035,71.97156 C0.760061035,71.98848 0.771430046,72 0.788483537,72 L17.6089245,72 C20.7638143,72 23.3218254,69.44184 23.3218254,66.28716 L23.3218254,60.11352 C23.3218254,53.4798 28.4776633,47.81232 35.1114784,47.59056 C42.0467209,47.35764 47.7368698,52.91136 47.7368698,59.78952 L47.7368698,66.3156 C47.7368698,69.45336 50.2835048,72 53.4212587,72 L72.7316211,72 C72.7485411,72 72.760061,71.98848 72.760061,71.97156 L72.760061,53.9118 C72.760061,50.76252 70.207666,48.21048 67.0583921,48.21048 L60.5553648,48.21048 C53.8136579,48.21048 48.3506686,42.74172 48.3506686,36.00576 C48.3449086,29.258172 53.807898,23.789664 60.5496048,23.789664 Z" id="Path"></path>
                </g>
                <g id="Heavy-L" transform="translate(2073.070000, 862.000000)">
                    <path d="M59.0587842,23.12884 L65.3811718,23.12884 C68.4429659,23.12884 70.924461,20.64741 70.924461,17.585645 L70.924461,0.027633025 C70.924461,0.01105321 70.9132611,0 70.8968111,0 L52.1284477,0 C49.0778536,0 46.6019584,2.475921 46.6019584,5.526605 L46.6019584,11.87116 C46.6019584,18.55833 41.0698692,23.95785 34.3272723,23.73126 C27.8832599,23.515695 22.8651097,18.01121 22.8651097,11.556125 L22.8651097,5.554255 C22.8651097,2.486974 20.3781545,0 17.3109005,0 L0.957694023,0 C0.94111424,0 0.930061035,0.01105321 0.930061035,0.027633025 L0.930061035,35 L0.930061035,69.97235 C0.930061035,69.9888 0.94111424,70 0.957694023,70 L17.3109005,70 C20.3781545,70 22.8651097,67.5129 22.8651097,64.44585 L22.8651097,58.4437 C22.8651097,51.99425 27.8777299,46.4842 34.3272723,46.2686 C41.0698692,46.04215 46.6019584,51.4416 46.6019584,58.1287 L46.6019584,64.4735 C46.6019584,67.5241 49.0778536,70 52.1284477,70 L70.9024111,70 C70.9188611,70 70.930061,69.9888 70.930061,69.97235 L70.930061,52.41425 C70.930061,49.35245 68.4485659,46.8713 65.3867718,46.8713 L59.0643842,46.8713 C52.5099469,46.8713 47.1987073,41.55445 47.1987073,35.0056 C47.1931073,28.445445 52.5043469,23.12884 59.0587842,23.12884 Z" id="Path"></path>
                </g>
                <g id="Bold-L" transform="translate(1777.970000, 862.000000)">
                    <path d="M56.4979635,22.468016 L62.6397115,22.468016 C65.6140257,22.468016 68.024621,20.057484 68.024621,17.083198 L68.024621,0.02684351 C68.024621,0.010737404 68.0137411,0 67.9977611,0 L49.7656366,0 C46.8022024,0 44.3970471,2.4051804 44.3970471,5.368702 L44.3970471,11.531984 C44.3970471,18.028092 39.0230175,23.27334 32.4730663,23.053224 C26.2131685,22.843818 21.338394,17.496604 21.338394,11.22595 L21.338394,5.395562 C21.338394,2.4159176 18.9224947,0 15.9428765,0 L0.0569045092,0 C0.0407984346,0 0.0300610352,0.010737404 0.0300610352,0.02684351 L0.0300610352,34 L0.0300610352,67.97314 C0.0300610352,67.98912 0.0407984346,68 0.0569045092,68 L15.9428765,68 C18.9224947,68 21.338394,65.58396 21.338394,62.60454 L21.338394,56.77388 C21.338394,50.5087 26.2077965,45.15608 32.4730663,44.94664 C39.0230175,44.72666 44.3970471,49.97184 44.3970471,56.46788 L44.3970471,62.6314 C44.3970471,65.59484 46.8022024,68 49.7656366,68 L68.0032011,68 C68.0191811,68 68.030061,67.98912 68.030061,67.97314 L68.030061,50.9167 C68.030061,47.94238 65.6194657,45.53212 62.6451515,45.53212 L56.5034035,45.53212 C50.1362359,45.53212 44.9767459,40.36718 44.9767459,34.00544 C44.971306,27.632718 50.1307959,22.468016 56.4979635,22.468016 Z" id="Path"></path>
                </g>
                <g id="Semibold-L" transform="translate(1481.700000, 863.000000)">
                    <path d="M55.9375532,22.137604 L61.9889814,22.137604 C64.9195557,22.137604 67.294701,19.762521 67.294701,16.8319745 L67.294701,0.0264487525 C67.294701,0.010579501 67.2839811,0 67.2682361,0 L49.3042311,0 C46.3843768,0 44.0145914,2.3698101 44.0145914,5.2897505 L44.0145914,11.362396 C44.0145914,17.762973 38.7195917,22.931085 32.2659633,22.714206 C26.0981228,22.5078795 21.2950362,17.239301 21.2950362,11.0608625 L21.2950362,5.3162155 C21.2950362,2.3803894 18.9146648,0 15.9788645,0 L0.326509752,0 C0.310640532,0 0.300061035,0.010579501 0.300061035,0.0264487525 L0.300061035,33.5 L0.300061035,66.973535 C0.300061035,66.98928 0.310640532,67 0.326509752,67 L15.9788645,67 C18.9146648,67 21.2950362,64.61949 21.2950362,61.683885 L21.2950362,55.93897 C21.2950362,49.765925 26.0928298,44.49202 32.2659633,44.28566 C38.7195917,44.068915 44.0145914,49.23696 44.0145914,55.63747 L44.0145914,61.71035 C44.0145914,64.63021 46.3843768,67 49.3042311,67 L67.2735961,67 C67.2893411,67 67.300061,66.98928 67.300061,66.973535 L67.300061,50.167925 C67.300061,47.237345 64.9249157,44.86253 61.9943414,44.86253 L55.9429132,44.86253 C49.6693804,44.86253 44.5857653,39.773545 44.5857653,33.50536 C44.5804053,27.2263545 49.6640204,22.137604 55.9375532,22.137604 Z" id="Path"></path>
                </g>
                <g id="Medium-L" transform="translate(1184.300000, 863.000000)">
                    <path d="M56.3375532,22.137604 L62.3889814,22.137604 C65.3195557,22.137604 67.694701,19.762521 67.694701,16.8319745 L67.694701,0.0264487525 C67.694701,0.010579501 67.6839811,0 67.6682361,0 L49.7042311,0 C46.7843768,0 44.4145914,2.3698101 44.4145914,5.2897505 L44.4145914,11.362396 C44.4145914,17.762973 39.1195917,22.931085 32.6659633,22.714206 C26.4981228,22.5078795 21.6950362,17.239301 21.6950362,11.0608625 L21.6950362,5.3162155 C21.6950362,2.3803894 19.3146648,0 16.3788645,0 L0.726509752,0 C0.710640532,0 0.700061035,0.010579501 0.700061035,0.0264487525 L0.700061035,33.5 L0.700061035,66.973535 C0.700061035,66.98928 0.710640532,67 0.726509752,67 L16.3788645,67 C19.3146648,67 21.6950362,64.61949 21.6950362,61.683885 L21.6950362,55.93897 C21.6950362,49.765925 26.4928298,44.49202 32.6659633,44.28566 C39.1195917,44.068915 44.4145914,49.23696 44.4145914,55.63747 L44.4145914,61.71035 C44.4145914,64.63021 46.7843768,67 49.7042311,67 L67.6735961,67 C67.6893411,67 67.700061,66.98928 67.700061,66.973535 L67.700061,50.167925 C67.700061,47.237345 65.3249157,44.86253 62.3943414,44.86253 L56.3429132,44.86253 C50.0693804,44.86253 44.9857653,39.773545 44.9857653,33.50536 C44.9804053,27.2263545 50.0640204,22.137604 56.3375532,22.137604 Z" id="Path"></path>
                </g>
                <g id="Regular-L" transform="translate(888.010000, 864.000000)">
                    <path d="M54.9667325,21.47678 L60.8375211,21.47678 C63.6806155,21.47678 65.984861,19.172595 65.984861,16.3295275 L65.984861,0.0256592375 C65.984861,0.010263695 65.9744611,0 65.9591861,0 L48.53142,0 C45.6987256,0 43.39968,2.2990695 43.39968,5.1318475 L43.39968,11.02322 C43.39968,17.232735 38.2627401,22.246575 32.0017573,22.03617 C26.0180314,21.8360025 21.3583205,16.724695 21.3583205,10.7306875 L21.3583205,5.1575225 C21.3583205,2.309333 19.049005,0 16.2008405,0 L1.01572024,0 C1.00032473,0 0.990061035,0.010263695 0.990061035,0.0256592375 L0.990061035,32.5 L0.990061035,64.974325 C0.990061035,64.9896 1.00032473,65 1.01572024,65 L16.2008405,65 C19.049005,65 21.3583205,62.69055 21.3583205,59.842575 L21.3583205,54.26915 C21.3583205,48.280375 26.0128964,43.1639 32.0017573,42.9637 C38.2627401,42.753425 43.39968,47.7672 43.39968,53.97665 L43.39968,59.86825 C43.39968,62.70095 45.6987256,65 48.53142,65 L65.9643861,65 C65.9796611,65 65.990061,64.9896 65.990061,64.974325 L65.990061,48.670375 C65.990061,45.827275 63.6858155,43.52335 60.8427211,43.52335 L54.9719325,43.52335 C48.8856694,43.52335 43.953804,38.586275 43.953804,32.5052 C43.948604,26.4136275 48.8804694,21.47678 54.9667325,21.47678 Z" id="Path"></path>
                </g>
                <g id="Light-L" transform="translate(592.200000, 865.000000)">
                    <path d="M53.9463222,21.146368 L59.7267909,21.146368 C62.5261455,21.146368 64.794941,18.877632 64.794941,16.078304 L64.794941,0.02526448 C64.794941,0.010105792 64.7847011,0 64.7696611,0 L47.6100145,0 C44.8209,0 42.5572244,2.2636992 42.5572244,5.052896 L42.5572244,10.853632 C42.5572244,16.967616 37.4993142,21.90432 31.3346542,21.697152 C25.4429857,21.500064 20.8549627,16.467392 20.8549627,10.5656 L20.8549627,5.078176 C20.8549627,2.2738048 18.5811751,0 15.7768285,0 L0.825325481,0 C0.810166823,0 0.800061035,0.010105792 0.800061035,0.02526448 L0.800061035,32 L0.800061035,63.97472 C0.800061035,63.98976 0.810166823,64 0.825325481,64 L15.7768285,64 C18.5811751,64 20.8549627,61.72608 20.8549627,58.92192 L20.8549627,53.43424 C20.8549627,47.5376 25.4379297,42.49984 31.3346542,42.30272 C37.4993142,42.09568 42.5572244,47.03232 42.5572244,53.14624 L42.5572244,58.9472 C42.5572244,61.73632 44.8209,64 47.6100145,64 L64.7747811,64 C64.7898211,64 64.800061,63.98976 64.800061,63.97472 L64.800061,47.9216 C64.800061,45.12224 62.5312655,42.85376 59.7319109,42.85376 L53.9514422,42.85376 C47.9588138,42.85376 43.1028233,37.99264 43.1028233,32.00512 C43.0977033,26.007264 47.9536939,21.146368 53.9463222,21.146368 Z" id="Path"></path>
                </g>
                <g id="Thin-L" transform="translate(296.683000, 865.000000)">
                    <path d="M52.6329119,20.815956 L58.3230608,20.815956 C61.0786754,20.815956 63.312021,18.582669 63.312021,15.8270805 L63.312021,0.0248697225 C63.312021,0.009947889 63.3019411,0 63.2871361,0 L46.395609,0 C43.6500744,0 41.4217687,2.2283289 41.4217687,4.9739445 L41.4217687,10.684044 C41.4217687,16.702497 36.4428884,21.562065 30.3745512,21.358134 C24.57494,21.1641255 20.0586048,16.210089 20.0586048,10.4005125 L20.0586048,4.9988295 C20.0586048,2.2382766 17.8203452,0 15.0598166,0 L0.341930724,0 C0.32700892,0 0.317061035,0.009947889 0.317061035,0.0248697225 L0.317061035,31.5 L0.317061035,62.975115 C0.317061035,62.98992 0.32700892,63 0.341930724,63 L15.0598166,63 C17.8203452,63 20.0586048,60.76161 20.0586048,58.001265 L20.0586048,52.59933 C20.0586048,46.794825 24.569963,41.83578 30.3745512,41.64174 C36.4428884,41.437935 41.4217687,46.29744 41.4217687,52.31583 L41.4217687,58.02615 C41.4217687,60.77169 43.6500744,63 46.395609,63 L63.2921761,63 C63.3069811,63 63.317061,62.98992 63.317061,62.975115 L63.317061,47.172825 C63.317061,44.417205 61.0837154,42.18417 58.3281008,42.18417 L52.6379518,42.18417 C46.7389583,42.18417 41.9588426,37.399005 41.9588426,31.50504 C41.9538027,25.6009005 46.7339183,20.815956 52.6329119,20.815956 Z" id="Path"></path>
                </g>
                <g id="Ultralight-L" transform="translate(0.607000, 866.000000)">
                    <path d="M51.0480912,20.155132 L56.5576005,20.155132 C59.2257353,20.155132 61.388181,17.992743 61.388181,15.3246335 L61.388181,0.0240802075 C61.388181,0.009632083 61.3784211,0 61.3640861,0 L45.008798,0 C42.3504231,0 40.1928573,2.1575883 40.1928573,4.8160415 L40.1928573,10.344868 C40.1928573,16.172259 35.3720367,20.877555 29.4963452,20.680098 C23.8808486,20.4922485 19.5078891,15.695483 19.5078891,10.0703375 L19.5078891,4.8401365 C19.5078891,2.1672202 17.3406854,0 14.6677926,0 L0.41714121,0 C0.402693114,0 0.393061035,0.009632083 0.393061035,0.0240802075 L0.393061035,30.5 L0.393061035,60.975905 C0.393061035,60.99024 0.402693114,61 0.41714121,61 L14.6677926,61 C17.3406854,61 19.5078891,58.83267 19.5078891,56.159955 L19.5078891,50.92951 C19.5078891,45.309275 23.8760296,40.50766 29.4963452,40.31978 C35.3720367,40.122445 40.1928573,44.82768 40.1928573,50.65501 L40.1928573,56.18405 C40.1928573,58.84243 42.3504231,61 45.008798,61 L61.3689661,61 C61.3833011,61 61.393061,60.99024 61.393061,60.975905 L61.393061,45.675275 C61.393061,43.007135 59.2306152,40.84499 56.5624804,40.84499 L51.0529712,40.84499 C45.3412473,40.84499 40.7128813,36.211735 40.7128813,30.50488 C40.7080013,24.7881735 45.3363673,20.155132 51.0480912,20.155132 Z" id="Path"></path>
                </g>
                <g id="Black-M" transform="translate(2368.580000, 430.000000)">
                    <path d="M60.2096048,23.789664 L66.7126322,23.789664 C69.861906,23.789664 72.414301,21.237336 72.414301,18.088092 L72.414301,0.02842254 C72.414301,0.011369016 72.4027811,0 72.3858611,0 L53.0812587,0 C49.9435048,0 47.3968698,2.5466616 47.3968698,5.684508 L47.3968698,12.210336 C47.3968698,19.088568 41.7067209,24.64236 34.7714784,24.409296 C28.1433513,24.187572 22.9818254,18.525816 22.9818254,11.8863 L22.9818254,5.712948 C22.9818254,2.5580304 20.4238143,0 17.2689245,0 L0.448483537,0 C0.431430046,0 0.420061035,0.011369016 0.420061035,0.02842254 L0.420061035,36 L0.420061035,71.97156 C0.420061035,71.98848 0.431430046,72 0.448483537,72 L17.2689245,72 C20.4238143,72 22.9818254,69.44184 22.9818254,66.28716 L22.9818254,60.11352 C22.9818254,53.4798 28.1376633,47.81232 34.7714784,47.59056 C41.7067209,47.35764 47.3968698,52.91136 47.3968698,59.78952 L47.3968698,66.3156 C47.3968698,69.45336 49.9435048,72 53.0812587,72 L72.3916211,72 C72.4085411,72 72.420061,71.98848 72.420061,71.97156 L72.420061,53.9118 C72.420061,50.76252 69.867666,48.21048 66.7183921,48.21048 L60.2153648,48.21048 C53.4736579,48.21048 48.0106686,42.74172 48.0106686,36.00576 C48.0049086,29.258172 53.467898,23.789664 60.2096048,23.789664 Z" id="Path"></path>
                </g>
                <g id="Heavy-M" transform="translate(2073.230000, 432.000000)">
                    <path d="M58.8987842,23.12884 L65.2211718,23.12884 C68.2829659,23.12884 70.764461,20.64741 70.764461,17.585645 L70.764461,0.027633025 C70.764461,0.01105321 70.7532611,0 70.7368111,0 L51.9684477,0 C48.9178536,0 46.4419584,2.475921 46.4419584,5.526605 L46.4419584,11.87116 C46.4419584,18.55833 40.9098692,23.95785 34.1672723,23.73126 C27.7232599,23.515695 22.7051097,18.01121 22.7051097,11.556125 L22.7051097,5.554255 C22.7051097,2.486974 20.2181545,0 17.1509005,0 L0.797694023,0 C0.78111424,0 0.770061035,0.01105321 0.770061035,0.027633025 L0.770061035,35 L0.770061035,69.97235 C0.770061035,69.9888 0.78111424,70 0.797694023,70 L17.1509005,70 C20.2181545,70 22.7051097,67.5129 22.7051097,64.44585 L22.7051097,58.4437 C22.7051097,51.99425 27.7177299,46.4842 34.1672723,46.2686 C40.9098692,46.04215 46.4419584,51.4416 46.4419584,58.1287 L46.4419584,64.4735 C46.4419584,67.5241 48.9178536,70 51.9684477,70 L70.7424111,70 C70.7588611,70 70.770061,69.9888 70.770061,69.97235 L70.770061,52.41425 C70.770061,49.35245 68.2885659,46.8713 65.2267718,46.8713 L58.9043842,46.8713 C52.3499469,46.8713 47.0387073,41.55445 47.0387073,35.0056 C47.0331073,28.445445 52.3443469,23.12884 58.8987842,23.12884 Z" id="Path"></path>
                </g>
                <g id="Bold-M" transform="translate(1777.940000, 432.000000)">
                    <path d="M56.5279635,22.468016 L62.6697115,22.468016 C65.6440257,22.468016 68.054621,20.057484 68.054621,17.083198 L68.054621,0.02684351 C68.054621,0.010737404 68.0437411,0 68.0277611,0 L49.7956366,0 C46.8322024,0 44.4270471,2.4051804 44.4270471,5.368702 L44.4270471,11.531984 C44.4270471,18.028092 39.0530175,23.27334 32.5030663,23.053224 C26.2431685,22.843818 21.368394,17.496604 21.368394,11.22595 L21.368394,5.395562 C21.368394,2.4159176 18.9524947,0 15.9728765,0 L0.0869045092,0 C0.0707984346,0 0.0600610352,0.010737404 0.0600610352,0.02684351 L0.0600610352,34 L0.0600610352,67.97314 C0.0600610352,67.98912 0.0707984346,68 0.0869045092,68 L15.9728765,68 C18.9524947,68 21.368394,65.58396 21.368394,62.60454 L21.368394,56.77388 C21.368394,50.5087 26.2377965,45.15608 32.5030663,44.94664 C39.0530175,44.72666 44.4270471,49.97184 44.4270471,56.46788 L44.4270471,62.6314 C44.4270471,65.59484 46.8322024,68 49.7956366,68 L68.0332011,68 C68.0491811,68 68.060061,67.98912 68.060061,67.97314 L68.060061,50.9167 C68.060061,47.94238 65.6494657,45.53212 62.6751515,45.53212 L56.5334035,45.53212 C50.1662359,45.53212 45.0067459,40.36718 45.0067459,34.00544 C45.001306,27.632718 50.1607959,22.468016 56.5279635,22.468016 Z" id="Path"></path>
                </g>
                <g id="Semibold-M" transform="translate(1481.520000, 433.000000)">
                    <path d="M56.1175532,22.137604 L62.1689814,22.137604 C65.0995557,22.137604 67.474701,19.762521 67.474701,16.8319745 L67.474701,0.0264487525 C67.474701,0.010579501 67.4639811,0 67.4482361,0 L49.4842311,0 C46.5643768,0 44.1945914,2.3698101 44.1945914,5.2897505 L44.1945914,11.362396 C44.1945914,17.762973 38.8995917,22.931085 32.4459633,22.714206 C26.2781228,22.5078795 21.4750362,17.239301 21.4750362,11.0608625 L21.4750362,5.3162155 C21.4750362,2.3803894 19.0946648,0 16.1588645,0 L0.506509752,0 C0.490640532,0 0.480061035,0.010579501 0.480061035,0.0264487525 L0.480061035,33.5 L0.480061035,66.973535 C0.480061035,66.98928 0.490640532,67 0.506509752,67 L16.1588645,67 C19.0946648,67 21.4750362,64.61949 21.4750362,61.683885 L21.4750362,55.93897 C21.4750362,49.765925 26.2728298,44.49202 32.4459633,44.28566 C38.8995917,44.068915 44.1945914,49.23696 44.1945914,55.63747 L44.1945914,61.71035 C44.1945914,64.63021 46.5643768,67 49.4842311,67 L67.4535961,67 C67.4693411,67 67.480061,66.98928 67.480061,66.973535 L67.480061,50.167925 C67.480061,47.237345 65.1049157,44.86253 62.1743414,44.86253 L56.1229132,44.86253 C49.8493804,44.86253 44.7657653,39.773545 44.7657653,33.50536 C44.7604053,27.2263545 49.8440204,22.137604 56.1175532,22.137604 Z" id="Path"></path>
                </g>
                <g id="Medium-M" transform="translate(1184.030000, 433.000000)">
                    <path d="M56.6075532,22.137604 L62.6589814,22.137604 C65.5895557,22.137604 67.964701,19.762521 67.964701,16.8319745 L67.964701,0.0264487525 C67.964701,0.010579501 67.9539811,0 67.9382361,0 L49.9742311,0 C47.0543768,0 44.6845914,2.3698101 44.6845914,5.2897505 L44.6845914,11.362396 C44.6845914,17.762973 39.3895917,22.931085 32.9359633,22.714206 C26.7681228,22.5078795 21.9650362,17.239301 21.9650362,11.0608625 L21.9650362,5.3162155 C21.9650362,2.3803894 19.5846648,0 16.6488645,0 L0.996509752,0 C0.980640532,0 0.970061035,0.010579501 0.970061035,0.0264487525 L0.970061035,33.5 L0.970061035,66.973535 C0.970061035,66.98928 0.980640532,67 0.996509752,67 L16.6488645,67 C19.5846648,67 21.9650362,64.61949 21.9650362,61.683885 L21.9650362,55.93897 C21.9650362,49.765925 26.7628298,44.49202 32.9359633,44.28566 C39.3895917,44.068915 44.6845914,49.23696 44.6845914,55.63747 L44.6845914,61.71035 C44.6845914,64.63021 47.0543768,67 49.9742311,67 L67.9435961,67 C67.9593411,67 67.970061,66.98928 67.970061,66.973535 L67.970061,50.167925 C67.970061,47.237345 65.5949157,44.86253 62.6643414,44.86253 L56.6129132,44.86253 C50.3393804,44.86253 45.2557653,39.773545 45.2557653,33.50536 C45.2504053,27.2263545 50.3340204,22.137604 56.6075532,22.137604 Z" id="Path"></path>
                </g>
                <g id="Regular-M" transform="translate(888.580000, 434.000000)">
                    <path d="M54.3967325,21.47678 L60.2675211,21.47678 C63.1106155,21.47678 65.414861,19.172595 65.414861,16.3295275 L65.414861,0.0256592375 C65.414861,0.010263695 65.4044611,0 65.3891861,0 L47.96142,0 C45.1287256,0 42.82968,2.2990695 42.82968,5.1318475 L42.82968,11.02322 C42.82968,17.232735 37.6927401,22.246575 31.4317573,22.03617 C25.4480314,21.8360025 20.7883205,16.724695 20.7883205,10.7306875 L20.7883205,5.1575225 C20.7883205,2.309333 18.479005,0 15.6308405,0 L0.445720238,0 C0.430324726,0 0.420061035,0.010263695 0.420061035,0.0256592375 L0.420061035,32.5 L0.420061035,64.974325 C0.420061035,64.9896 0.430324726,65 0.445720238,65 L15.6308405,65 C18.479005,65 20.7883205,62.69055 20.7883205,59.842575 L20.7883205,54.26915 C20.7883205,48.280375 25.4428964,43.1639 31.4317573,42.9637 C37.6927401,42.753425 42.82968,47.7672 42.82968,53.97665 L42.82968,59.86825 C42.82968,62.70095 45.1287256,65 47.96142,65 L65.3943861,65 C65.4096611,65 65.420061,64.9896 65.420061,64.974325 L65.420061,48.670375 C65.420061,45.827275 63.1158155,43.52335 60.2727211,43.52335 L54.4019325,43.52335 C48.3156694,43.52335 43.383804,38.586275 43.383804,32.5052 C43.378604,26.4136275 48.3104694,21.47678 54.3967325,21.47678 Z" id="Path"></path>
                </g>
                <g id="Light-M" transform="translate(592.680000, 435.000000)">
                    <path d="M53.4663222,21.146368 L59.2467909,21.146368 C62.0461455,21.146368 64.314941,18.877632 64.314941,16.078304 L64.314941,0.02526448 C64.314941,0.010105792 64.3047011,0 64.2896611,0 L47.1300145,0 C44.3409,0 42.0772244,2.2636992 42.0772244,5.052896 L42.0772244,10.853632 C42.0772244,16.967616 37.0193142,21.90432 30.8546542,21.697152 C24.9629857,21.500064 20.3749627,16.467392 20.3749627,10.5656 L20.3749627,5.078176 C20.3749627,2.2738048 18.1011751,0 15.2968285,0 L0.345325481,0 C0.330166823,0 0.320061035,0.010105792 0.320061035,0.02526448 L0.320061035,32 L0.320061035,63.97472 C0.320061035,63.98976 0.330166823,64 0.345325481,64 L15.2968285,64 C18.1011751,64 20.3749627,61.72608 20.3749627,58.92192 L20.3749627,53.43424 C20.3749627,47.5376 24.9579297,42.49984 30.8546542,42.30272 C37.0193142,42.09568 42.0772244,47.03232 42.0772244,53.14624 L42.0772244,58.9472 C42.0772244,61.73632 44.3409,64 47.1300145,64 L64.2947811,64 C64.3098211,64 64.320061,63.98976 64.320061,63.97472 L64.320061,47.9216 C64.320061,45.12224 62.0512655,42.85376 59.2519109,42.85376 L53.4714422,42.85376 C47.4788138,42.85376 42.6228233,37.99264 42.6228233,32.00512 C42.6177033,26.007264 47.4736939,21.146368 53.4663222,21.146368 Z" id="Path"></path>
                </g>
                <g id="Thin-M" transform="translate(296.042000, 435.000000)">
                    <path d="M53.2739119,20.815956 L58.9640608,20.815956 C61.7196754,20.815956 63.953021,18.582669 63.953021,15.8270805 L63.953021,0.0248697225 C63.953021,0.009947889 63.9429411,0 63.9281361,0 L47.036609,0 C44.2910744,0 42.0627687,2.2283289 42.0627687,4.9739445 L42.0627687,10.684044 C42.0627687,16.702497 37.0838884,21.562065 31.0155512,21.358134 C25.21594,21.1641255 20.6996048,16.210089 20.6996048,10.4005125 L20.6996048,4.9988295 C20.6996048,2.2382766 18.4613452,0 15.7008166,0 L0.982930724,0 C0.96800892,0 0.958061035,0.009947889 0.958061035,0.0248697225 L0.958061035,31.5 L0.958061035,62.975115 C0.958061035,62.98992 0.96800892,63 0.982930724,63 L15.7008166,63 C18.4613452,63 20.6996048,60.76161 20.6996048,58.001265 L20.6996048,52.59933 C20.6996048,46.794825 25.210963,41.83578 31.0155512,41.64174 C37.0838884,41.437935 42.0627687,46.29744 42.0627687,52.31583 L42.0627687,58.02615 C42.0627687,60.77169 44.2910744,63 47.036609,63 L63.9331761,63 C63.9479811,63 63.958061,62.98992 63.958061,62.975115 L63.958061,47.172825 C63.958061,44.417205 61.7247154,42.18417 58.9691008,42.18417 L53.2789518,42.18417 C47.3799583,42.18417 42.5998426,37.399005 42.5998426,31.50504 C42.5948027,25.6009005 47.3749183,20.815956 53.2739119,20.815956 Z" id="Path"></path>
                </g>
                <g id="Ultralight-M" transform="translate(0.893000, 436.000000)">
                    <path d="M50.7620912,20.155132 L56.2716005,20.155132 C58.9397353,20.155132 61.102181,17.992743 61.102181,15.3246335 L61.102181,0.0240802075 C61.102181,0.009632083 61.0924211,0 61.0780861,0 L44.722798,0 C42.0644231,0 39.9068573,2.1575883 39.9068573,4.8160415 L39.9068573,10.344868 C39.9068573,16.172259 35.0860367,20.877555 29.2103452,20.680098 C23.5948486,20.4922485 19.2218891,15.695483 19.2218891,10.0703375 L19.2218891,4.8401365 C19.2218891,2.1672202 17.0546854,0 14.3817926,0 L0.13114121,0 C0.116693114,0 0.107061035,0.009632083 0.107061035,0.0240802075 L0.107061035,30.5 L0.107061035,60.975905 C0.107061035,60.99024 0.116693114,61 0.13114121,61 L14.3817926,61 C17.0546854,61 19.2218891,58.83267 19.2218891,56.159955 L19.2218891,50.92951 C19.2218891,45.309275 23.5900296,40.50766 29.2103452,40.31978 C35.0860367,40.122445 39.9068573,44.82768 39.9068573,50.65501 L39.9068573,56.18405 C39.9068573,58.84243 42.0644231,61 44.722798,61 L61.0829661,61 C61.0973011,61 61.107061,60.99024 61.107061,60.975905 L61.107061,45.675275 C61.107061,43.007135 58.9446152,40.84499 56.2764804,40.84499 L50.7669712,40.84499 C45.0552473,40.84499 40.4268813,36.211735 40.4268813,30.50488 C40.4220013,24.7881735 45.0503673,20.155132 50.7620912,20.155132 Z" id="Path"></path>
                </g>
                <g id="Black-S" transform="translate(2368.280000, 0.000000)">
                    <path d="M60.5096048,23.789664 L67.0126322,23.789664 C70.161906,23.789664 72.714301,21.237336 72.714301,18.088092 L72.714301,0.02842254 C72.714301,0.011369016 72.7027811,0 72.6858611,0 L53.3812587,0 C50.2435048,0 47.6968698,2.5466616 47.6968698,5.684508 L47.6968698,12.210336 C47.6968698,19.088568 42.0067209,24.64236 35.0714784,24.409296 C28.4433513,24.187572 23.2818254,18.525816 23.2818254,11.8863 L23.2818254,5.712948 C23.2818254,2.5580304 20.7238143,0 17.5689245,0 L0.748483537,0 C0.731430046,0 0.720061035,0.011369016 0.720061035,0.02842254 L0.720061035,36 L0.720061035,71.97156 C0.720061035,71.98848 0.731430046,72 0.748483537,72 L17.5689245,72 C20.7238143,72 23.2818254,69.44184 23.2818254,66.28716 L23.2818254,60.11352 C23.2818254,53.4798 28.4376633,47.81232 35.0714784,47.59056 C42.0067209,47.35764 47.6968698,52.91136 47.6968698,59.78952 L47.6968698,66.3156 C47.6968698,69.45336 50.2435048,72 53.3812587,72 L72.6916211,72 C72.7085411,72 72.720061,71.98848 72.720061,71.97156 L72.720061,53.9118 C72.720061,50.76252 70.167666,48.21048 67.0183921,48.21048 L60.5153648,48.21048 C53.7736579,48.21048 48.3106686,42.74172 48.3106686,36.00576 C48.3049086,29.258172 53.767898,23.789664 60.5096048,23.789664 Z" id="Path"></path>
                </g>
                <g id="Heavy-S" transform="translate(2073.760000, 2.000000)">
                    <path d="M58.3687842,23.12884 L64.6911718,23.12884 C67.7529659,23.12884 70.234461,20.64741 70.234461,17.585645 L70.234461,0.027633025 C70.234461,0.01105321 70.2232611,0 70.2068111,0 L51.4384477,0 C48.3878536,0 45.9119584,2.475921 45.9119584,5.526605 L45.9119584,11.87116 C45.9119584,18.55833 40.3798692,23.95785 33.6372723,23.73126 C27.1932599,23.515695 22.1751097,18.01121 22.1751097,11.556125 L22.1751097,5.554255 C22.1751097,2.486974 19.6881545,0 16.6209005,0 L0.267694023,0 C0.25111424,0 0.240061035,0.01105321 0.240061035,0.027633025 L0.240061035,35 L0.240061035,69.97235 C0.240061035,69.9888 0.25111424,70 0.267694023,70 L16.6209005,70 C19.6881545,70 22.1751097,67.5129 22.1751097,64.44585 L22.1751097,58.4437 C22.1751097,51.99425 27.1877299,46.4842 33.6372723,46.2686 C40.3798692,46.04215 45.9119584,51.4416 45.9119584,58.1287 L45.9119584,64.4735 C45.9119584,67.5241 48.3878536,70 51.4384477,70 L70.2124111,70 C70.2288611,70 70.240061,69.9888 70.240061,69.97235 L70.240061,52.41425 C70.240061,49.35245 67.7585659,46.8713 64.6967718,46.8713 L58.3743842,46.8713 C51.8199469,46.8713 46.5087073,41.55445 46.5087073,35.0056 C46.5031073,28.445445 51.8143469,23.12884 58.3687842,23.12884 Z" id="Path"></path>
                </g>
                <g id="Bold-S" transform="translate(1777.270000, 2.000000)">
                    <path d="M57.1979635,22.468016 L63.3397115,22.468016 C66.3140257,22.468016 68.724621,20.057484 68.724621,17.083198 L68.724621,0.02684351 C68.724621,0.010737404 68.7137411,0 68.6977611,0 L50.4656366,0 C47.5022024,0 45.0970471,2.4051804 45.0970471,5.368702 L45.0970471,11.531984 C45.0970471,18.028092 39.7230175,23.27334 33.1730663,23.053224 C26.9131685,22.843818 22.038394,17.496604 22.038394,11.22595 L22.038394,5.395562 C22.038394,2.4159176 19.6224947,0 16.6428765,0 L0.756904509,0 C0.740798435,0 0.730061035,0.010737404 0.730061035,0.02684351 L0.730061035,34 L0.730061035,67.97314 C0.730061035,67.98912 0.740798435,68 0.756904509,68 L16.6428765,68 C19.6224947,68 22.038394,65.58396 22.038394,62.60454 L22.038394,56.77388 C22.038394,50.5087 26.9077965,45.15608 33.1730663,44.94664 C39.7230175,44.72666 45.0970471,49.97184 45.0970471,56.46788 L45.0970471,62.6314 C45.0970471,65.59484 47.5022024,68 50.4656366,68 L68.7032011,68 C68.7191811,68 68.730061,67.98912 68.730061,67.97314 L68.730061,50.9167 C68.730061,47.94238 66.3194657,45.53212 63.3451515,45.53212 L57.2034035,45.53212 C50.8362359,45.53212 45.6767459,40.36718 45.6767459,34.00544 C45.671306,27.632718 50.8307959,22.468016 57.1979635,22.468016 Z" id="Path"></path>
                </g>
                <g id="Semibold-S" transform="translate(1481.700000, 3.000000)">
                    <path d="M55.9375532,22.137604 L61.9889814,22.137604 C64.9195557,22.137604 67.294701,19.762521 67.294701,16.8319745 L67.294701,0.0264487525 C67.294701,0.010579501 67.2839811,0 67.2682361,0 L49.3042311,0 C46.3843768,0 44.0145914,2.3698101 44.0145914,5.2897505 L44.0145914,11.362396 C44.0145914,17.762973 38.7195917,22.931085 32.2659633,22.714206 C26.0981228,22.5078795 21.2950362,17.239301 21.2950362,11.0608625 L21.2950362,5.3162155 C21.2950362,2.3803894 18.9146648,0 15.9788645,0 L0.326509752,0 C0.310640532,0 0.300061035,0.010579501 0.300061035,0.0264487525 L0.300061035,33.5 L0.300061035,66.973535 C0.300061035,66.98928 0.310640532,67 0.326509752,67 L15.9788645,67 C18.9146648,67 21.2950362,64.61949 21.2950362,61.683885 L21.2950362,55.93897 C21.2950362,49.765925 26.0928298,44.49202 32.2659633,44.28566 C38.7195917,44.068915 44.0145914,49.23696 44.0145914,55.63747 L44.0145914,61.71035 C44.0145914,64.63021 46.3843768,67 49.3042311,67 L67.2735961,67 C67.2893411,67 67.300061,66.98928 67.300061,66.973535 L67.300061,50.167925 C67.300061,47.237345 64.9249157,44.86253 61.9943414,44.86253 L55.9429132,44.86253 C49.6693804,44.86253 44.5857653,39.773545 44.5857653,33.50536 C44.5804053,27.2263545 49.6640204,22.137604 55.9375532,22.137604 Z" id="Path"></path>
                </g>
                <g id="Medium-S" transform="translate(1184.090000, 3.000000)">
                    <path d="M56.5475532,22.137604 L62.5989814,22.137604 C65.5295557,22.137604 67.904701,19.762521 67.904701,16.8319745 L67.904701,0.0264487525 C67.904701,0.010579501 67.8939811,0 67.8782361,0 L49.9142311,0 C46.9943768,0 44.6245914,2.3698101 44.6245914,5.2897505 L44.6245914,11.362396 C44.6245914,17.762973 39.3295917,22.931085 32.8759633,22.714206 C26.7081228,22.5078795 21.9050362,17.239301 21.9050362,11.0608625 L21.9050362,5.3162155 C21.9050362,2.3803894 19.5246648,0 16.5888645,0 L0.936509752,0 C0.920640532,0 0.910061035,0.010579501 0.910061035,0.0264487525 L0.910061035,33.5 L0.910061035,66.973535 C0.910061035,66.98928 0.920640532,67 0.936509752,67 L16.5888645,67 C19.5246648,67 21.9050362,64.61949 21.9050362,61.683885 L21.9050362,55.93897 C21.9050362,49.765925 26.7028298,44.49202 32.8759633,44.28566 C39.3295917,44.068915 44.6245914,49.23696 44.6245914,55.63747 L44.6245914,61.71035 C44.6245914,64.63021 46.9943768,67 49.9142311,67 L67.8835961,67 C67.8993411,67 67.910061,66.98928 67.910061,66.973535 L67.910061,50.167925 C67.910061,47.237345 65.5349157,44.86253 62.6043414,44.86253 L56.5529132,44.86253 C50.2793804,44.86253 45.1957653,39.773545 45.1957653,33.50536 C45.1904053,27.2263545 50.2740204,22.137604 56.5475532,22.137604 Z" id="Path"></path>
                </g>
                <g id="Regular-S" transform="translate(888.530000, 4.000000)">
                    <path d="M54.4467325,21.47678 L60.3175211,21.47678 C63.1606155,21.47678 65.464861,19.172595 65.464861,16.3295275 L65.464861,0.0256592375 C65.464861,0.010263695 65.4544611,0 65.4391861,0 L48.01142,0 C45.1787256,0 42.87968,2.2990695 42.87968,5.1318475 L42.87968,11.02322 C42.87968,17.232735 37.7427401,22.246575 31.4817573,22.03617 C25.4980314,21.8360025 20.8383205,16.724695 20.8383205,10.7306875 L20.8383205,5.1575225 C20.8383205,2.309333 18.529005,0 15.6808405,0 L0.495720238,0 C0.480324726,0 0.470061035,0.010263695 0.470061035,0.0256592375 L0.470061035,32.5 L0.470061035,64.974325 C0.470061035,64.9896 0.480324726,65 0.495720238,65 L15.6808405,65 C18.529005,65 20.8383205,62.69055 20.8383205,59.842575 L20.8383205,54.26915 C20.8383205,48.280375 25.4928964,43.1639 31.4817573,42.9637 C37.7427401,42.753425 42.87968,47.7672 42.87968,53.97665 L42.87968,59.86825 C42.87968,62.70095 45.1787256,65 48.01142,65 L65.4443861,65 C65.4596611,65 65.470061,64.9896 65.470061,64.974325 L65.470061,48.670375 C65.470061,45.827275 63.1658155,43.52335 60.3227211,43.52335 L54.4519325,43.52335 C48.3656694,43.52335 43.433804,38.586275 43.433804,32.5052 C43.428604,26.4136275 48.3604694,21.47678 54.4467325,21.47678 Z" id="Path"></path>
                </g>
                <g id="Light-S" transform="translate(592.550000, 5.000000)">
                    <path d="M53.5963222,21.146368 L59.3767909,21.146368 C62.1761455,21.146368 64.444941,18.877632 64.444941,16.078304 L64.444941,0.02526448 C64.444941,0.010105792 64.4347011,0 64.4196611,0 L47.2600145,0 C44.4709,0 42.2072244,2.2636992 42.2072244,5.052896 L42.2072244,10.853632 C42.2072244,16.967616 37.1493142,21.90432 30.9846542,21.697152 C25.0929857,21.500064 20.5049627,16.467392 20.5049627,10.5656 L20.5049627,5.078176 C20.5049627,2.2738048 18.2311751,0 15.4268285,0 L0.475325481,0 C0.460166823,0 0.450061035,0.010105792 0.450061035,0.02526448 L0.450061035,32 L0.450061035,63.97472 C0.450061035,63.98976 0.460166823,64 0.475325481,64 L15.4268285,64 C18.2311751,64 20.5049627,61.72608 20.5049627,58.92192 L20.5049627,53.43424 C20.5049627,47.5376 25.0879297,42.49984 30.9846542,42.30272 C37.1493142,42.09568 42.2072244,47.03232 42.2072244,53.14624 L42.2072244,58.9472 C42.2072244,61.73632 44.4709,64 47.2600145,64 L64.4247811,64 C64.4398211,64 64.450061,63.98976 64.450061,63.97472 L64.450061,47.9216 C64.450061,45.12224 62.1812655,42.85376 59.3819109,42.85376 L53.6014422,42.85376 C47.6088138,42.85376 42.7528233,37.99264 42.7528233,32.00512 C42.7477033,26.007264 47.6036939,21.146368 53.5963222,21.146368 Z" id="Path"></path>
                </g>
                <g id="Thin-S" transform="translate(296.763000, 5.000000)">
                    <path d="M52.5529119,20.815956 L58.2430608,20.815956 C60.9986754,20.815956 63.232021,18.582669 63.232021,15.8270805 L63.232021,0.0248697225 C63.232021,0.009947889 63.2219411,0 63.2071361,0 L46.315609,0 C43.5700744,0 41.3417687,2.2283289 41.3417687,4.9739445 L41.3417687,10.684044 C41.3417687,16.702497 36.3628884,21.562065 30.2945512,21.358134 C24.49494,21.1641255 19.9786048,16.210089 19.9786048,10.4005125 L19.9786048,4.9988295 C19.9786048,2.2382766 17.7403452,0 14.9798166,0 L0.261930724,0 C0.24700892,0 0.237061035,0.009947889 0.237061035,0.0248697225 L0.237061035,31.5 L0.237061035,62.975115 C0.237061035,62.98992 0.24700892,63 0.261930724,63 L14.9798166,63 C17.7403452,63 19.9786048,60.76161 19.9786048,58.001265 L19.9786048,52.59933 C19.9786048,46.794825 24.489963,41.83578 30.2945512,41.64174 C36.3628884,41.437935 41.3417687,46.29744 41.3417687,52.31583 L41.3417687,58.02615 C41.3417687,60.77169 43.5700744,63 46.315609,63 L63.2121761,63 C63.2269811,63 63.237061,62.98992 63.237061,62.975115 L63.237061,47.172825 C63.237061,44.417205 61.0037154,42.18417 58.2481008,42.18417 L52.5579518,42.18417 C46.6589583,42.18417 41.8788426,37.399005 41.8788426,31.50504 C41.8738027,25.6009005 46.6539183,20.815956 52.5529119,20.815956 Z" id="Path"></path>
                </g>
                <g id="Ultralight-S" transform="translate(0.540000, 6.000000)">
                    <path d="M51.1150912,20.155132 L56.6246005,20.155132 C59.2927353,20.155132 61.455181,17.992743 61.455181,15.3246335 L61.455181,0.0240802075 C61.455181,0.009632083 61.4454211,0 61.4310861,0 L45.075798,0 C42.4174231,0 40.2598573,2.1575883 40.2598573,4.8160415 L40.2598573,10.344868 C40.2598573,16.172259 35.4390367,20.877555 29.5633452,20.680098 C23.9478486,20.4922485 19.5748891,15.695483 19.5748891,10.0703375 L19.5748891,4.8401365 C19.5748891,2.1672202 17.4076854,0 14.7347926,0 L0.48414121,0 C0.469693114,0 0.460061035,0.009632083 0.460061035,0.0240802075 L0.460061035,30.5 L0.460061035,60.975905 C0.460061035,60.99024 0.469693114,61 0.48414121,61 L14.7347926,61 C17.4076854,61 19.5748891,58.83267 19.5748891,56.159955 L19.5748891,50.92951 C19.5748891,45.309275 23.9430296,40.50766 29.5633452,40.31978 C35.4390367,40.122445 40.2598573,44.82768 40.2598573,50.65501 L40.2598573,56.18405 C40.2598573,58.84243 42.4174231,61 45.075798,61 L61.4359661,61 C61.4503011,61 61.460061,60.99024 61.460061,60.975905 L61.460061,45.675275 C61.460061,43.007135 59.2976152,40.84499 56.6294804,40.84499 L51.1199712,40.84499 C45.4082473,40.84499 40.7798813,36.211735 40.7798813,30.50488 C40.7750013,24.7881735 45.4033673,20.155132 51.1150912,20.155132 Z" id="Path"></path>
                </g>
            </g>
        </g>
    </g>
</svg>