<svg width="32" height="32" viewBox="0 0 32 32" fill="none" xmlns="http://www.w3.org/2000/svg">
<path d="M30.4566 15.9998C30.4565 8.01577 23.9839 1.5434 15.9998 1.5434C8.01581 1.54346 1.54346 8.01581 1.5434 15.9998C1.5434 23.9839 8.01577 30.4565 15.9998 30.4566C23.9839 30.4566 30.4566 23.9839 30.4566 15.9998ZM22.0249 11.7757L13.5877 22.0876L9.14647 17.6463L10.238 16.5548L13.4731 19.7899L20.8302 10.7984L22.0249 11.7757ZM32 15.9998C32 24.8363 24.8363 32 15.9998 32C7.16337 31.9999 0 24.8363 0 15.9998C5.47359e-05 7.16341 7.16341 5.47287e-05 15.9998 0C24.8363 0 31.9999 7.16337 32 15.9998Z" fill="white"/>
</svg>
