<svg width="41" height="41" viewBox="0 0 41 41" fill="none" xmlns="http://www.w3.org/2000/svg">
<path d="M7.31345 14.149C6.08283 14.149 5.10364 15.1282 5.10364 16.3588V25.5634C5.10364 26.7941 6.08283 27.7733 7.31345 27.7733C8.54404 27.7733 9.52323 26.7941 9.52323 25.5634V16.3588C9.52323 15.1282 8.54404 14.149 7.31345 14.149ZM30.0544 14.528V28.8121C30.0544 30.0439 29.1286 31.0516 27.9323 31.1807L27.672 31.1945L26.0894 31.1942L26.0917 36.0675C26.0917 37.2982 25.1124 38.2774 23.8818 38.2774C22.739 38.2774 21.8131 37.433 21.6867 36.3273L21.6719 36.0675L21.6698 31.1942H18.7273L18.7278 36.0675C18.7278 37.2982 17.7486 38.2774 16.518 38.2774C15.3753 38.2774 14.4494 37.433 14.323 36.3273L14.3082 36.0675L14.3076 31.1942L12.7279 31.1945C11.496 31.1945 10.4883 30.269 10.3594 29.0724L10.3455 28.8121V14.528H30.0544ZM33.0865 14.149C34.2292 14.149 35.155 14.9933 35.2816 16.0992L35.2964 16.3588V25.5634C35.2964 26.7941 34.317 27.7733 33.0865 27.7733C31.9438 27.7733 31.018 26.9289 30.8914 25.8232L30.8766 25.5634V16.3588C30.8766 15.1282 31.856 14.149 33.0865 14.149ZM26.3183 2.55177C26.3706 2.55228 26.4193 2.56578 26.4673 2.5924C26.5934 2.66227 26.6515 2.79213 26.625 2.92215L26.589 3.01878L25.0324 5.83092C27.8774 7.31139 29.8454 10.0582 30.0386 13.2432L30.0544 13.7497H10.3455C10.3493 10.5208 12.1752 7.68656 14.9256 6.07511L15.3675 5.83095L13.8108 3.01878C13.7232 2.8608 13.775 2.67975 13.9326 2.5924C13.9806 2.56578 14.0293 2.55231 14.0815 2.55177C14.156 2.55106 14.228 2.57566 14.2854 2.62402L14.359 2.71422L15.936 5.55683C17.226 4.98461 18.673 4.66344 20.1999 4.66344C21.5087 4.66344 22.7588 4.89941 23.9016 5.32717L24.4638 5.55683L26.0409 2.7142C26.1003 2.60656 26.2065 2.5507 26.3183 2.55177Z" fill="white"/>
</svg>
