<svg width="32" height="32" viewBox="0 0 32 32" fill="none" xmlns="http://www.w3.org/2000/svg">
<path d="M25.864 6.41777C25.0894 5.64321 23.8335 5.64321 23.059 6.41777L9.83662 19.6401C9.46467 20.0121 9.25571 20.5166 9.25571 21.0426V25.7839C9.25571 26.149 9.5517 26.445 9.91683 26.445H14.6581C15.1841 26.445 15.6885 26.2361 16.0605 25.8642L29.2829 12.6417C30.0575 11.8671 30.0575 10.6114 29.2829 9.8368L25.864 6.41777Z" fill="white"/>
<path d="M1.98333 6.61136C1.6182 6.61136 1.3222 6.90736 1.3222 7.27248C1.3222 7.6376 1.6182 7.9336 1.98333 7.9336H12.5613C12.9264 7.9336 13.2224 7.6376 13.2224 7.27248C13.2224 6.90736 12.9264 6.61136 12.5613 6.61136H1.98333Z" fill="white"/>
<path d="M1.98333 11.9003C1.6182 11.9003 1.3222 12.1963 1.3222 12.5614C1.3222 12.9265 1.6182 13.2225 1.98333 13.2225H8.59453C8.95965 13.2225 9.25565 12.9265 9.25565 12.5614C9.25565 12.1963 8.95965 11.9003 8.59453 11.9003H1.98333Z" fill="white"/>
</svg>
