<svg width="100" height="100" viewBox="0 0 100 100" fill="none" xmlns="http://www.w3.org/2000/svg">
<rect width="100" height="100" rx="50" fill="#282828"/>
<path d="M30.4944 30.233C30.4944 25.9239 33.9876 22.4307 38.2968 22.4307H61.7034C66.0126 22.4307 69.5058 25.9239 69.5058 30.233C69.5058 34.5422 66.0125 38.0354 61.7034 38.0354H38.2968C33.9876 38.0354 30.4944 34.5422 30.4944 30.233Z" fill="white"/>
<path d="M30.4944 50.0017C30.4944 45.6925 33.9876 42.1993 38.2968 42.1993H56.516C60.8251 42.1993 64.3183 45.6925 64.3183 50.0017C64.3183 54.3108 60.8251 57.804 56.516 57.804H38.2968C33.9876 57.804 30.4944 54.3108 30.4944 50.0017Z" fill="white"/>
<path d="M30.4944 69.767C30.4944 65.4581 33.9875 61.9647 38.2964 61.9647C42.6053 61.9647 46.0984 65.4581 46.0984 69.767C46.0984 74.076 42.6053 77.5694 38.2964 77.5694C33.9875 77.5694 30.4944 74.076 30.4944 69.767Z" fill="white"/>
</svg>
