<svg width="18" height="14" viewBox="0 0 18 14" fill="none" xmlns="http://www.w3.org/2000/svg">
<path d="M17.291 10.3464C17.5474 10.3464 17.6754 10.6561 17.4938 10.8371L14.7229 13.608C14.6151 13.7158 14.469 13.7765 14.3165 13.7765H0.28807C0.231225 13.7766 0.175623 13.7598 0.128327 13.7282C0.0810025 13.6966 0.0438641 13.6518 0.0221247 13.5992C0.000460063 13.5467 -0.00570229 13.489 0.00544827 13.4333C0.0166419 13.3776 0.0441348 13.326 0.084442 13.2859L2.85537 10.5149C2.96299 10.4073 3.11039 10.3467 3.26262 10.3464H17.291Z" fill="white" fill-opacity="0.5"/>
<path d="M14.3165 5.13986C14.4687 5.14008 14.6144 5.20078 14.722 5.30838L17.4938 8.08018C17.6753 8.26111 17.5474 8.57082 17.291 8.57082H3.26262C3.10807 8.57082 2.96157 8.50851 2.85537 8.4023L0.084442 5.6305C0.0441944 5.59041 0.0166317 5.53874 0.00544827 5.48304C-0.00565765 5.42737 0.000431604 5.36963 0.0221247 5.31716C0.0438654 5.26458 0.0810097 5.21972 0.128327 5.18813C0.175601 5.15665 0.231266 5.13977 0.28807 5.13986H14.3165Z" fill="white" fill-opacity="0.5"/>
<path d="M17.291 0C17.5474 0 17.6754 0.308988 17.4938 0.490639L14.7229 3.26156C14.6151 3.36935 14.4689 3.43005 14.3165 3.43008H0.28807C0.23129 3.43018 0.175588 3.41327 0.128327 3.38181C0.0810427 3.35025 0.0438714 3.30531 0.0221247 3.25279C0.000447693 3.20036 -0.00562458 3.14254 0.00544827 3.0869C0.0166258 3.03123 0.0442296 2.97952 0.084442 2.93945L2.85537 0.167642L2.85624 0.16852C2.96611 0.0615806 3.1132 0 3.26262 0H17.291Z" fill="white" fill-opacity="0.5"/>
</svg>
