<?xml version="1.0" encoding="UTF-8"?>
<svg width="3300px" height="2200px" viewBox="0 0 3300 2200" version="1.1" xmlns="http://www.w3.org/2000/svg" xmlns:xlink="http://www.w3.org/1999/xlink">
    <title>kin.fill</title>
    <g id="Page-1" stroke="none" stroke-width="1" fill="none" fill-rule="evenodd">
        <g id="kin.fill">
            <g id="Notes">
                <rect id="artboard" fill="#FFFFFF" fill-rule="nonzero" x="0" y="0" width="3300" height="2200"></rect>
                <line x1="263" y1="292" x2="3036" y2="292" id="Path" stroke="#000000" stroke-width="0.5"></line>
                <text id="Weight/Scale-Variations" fill="#000000" fill-rule="nonzero" font-family="Helvetica-Bold, Helvetica" font-size="13" font-weight="bold">
                    <tspan x="263" y="322">Weight/Scale Variations</tspan>
                </text>
                <text id="Ultralight" fill="#000000" fill-rule="nonzero" font-family="Helvetica" font-size="13" font-weight="normal">
                    <tspan x="533.711" y="322">Ultralight</tspan>
                </text>
                <text id="Thin" fill="#000000" fill-rule="nonzero" font-family="Helvetica" font-size="13" font-weight="normal">
                    <tspan x="843.422" y="322">Thin</tspan>
                </text>
                <text id="Light" fill="#000000" fill-rule="nonzero" font-family="Helvetica" font-size="13" font-weight="normal">
                    <tspan x="1138.63" y="322">Light</tspan>
                </text>
                <text id="Regular" fill="#000000" fill-rule="nonzero" font-family="Helvetica" font-size="13" font-weight="normal">
                    <tspan x="1426.84" y="322">Regular</tspan>
                </text>
                <text id="Medium" fill="#000000" fill-rule="nonzero" font-family="Helvetica" font-size="13" font-weight="normal">
                    <tspan x="1723.06" y="322">Medium</tspan>
                </text>
                <text id="Semibold" fill="#000000" fill-rule="nonzero" font-family="Helvetica" font-size="13" font-weight="normal">
                    <tspan x="2015.77" y="322">Semibold</tspan>
                </text>
                <text id="Bold" fill="#000000" fill-rule="nonzero" font-family="Helvetica" font-size="13" font-weight="normal">
                    <tspan x="2326.48" y="322">Bold</tspan>
                </text>
                <text id="Heavy" fill="#000000" fill-rule="nonzero" font-family="Helvetica" font-size="13" font-weight="normal">
                    <tspan x="2618.19" y="322">Heavy</tspan>
                </text>
                <text id="Black" fill="#000000" fill-rule="nonzero" font-family="Helvetica" font-size="13" font-weight="normal">
                    <tspan x="2917.4" y="322">Black</tspan>
                </text>
                <line x1="263" y1="1903" x2="3036" y2="1903" id="Path" stroke="#000000" stroke-width="0.5"></line>
                <g id="Group" transform="translate(264.000000, 1918.000000)" fill="#000000" fill-rule="nonzero">
                    <path d="M8.24805,15.830078 C12.5547,15.830078 16.1387,12.25586 16.1387,7.94922 C16.1387,3.6426 12.5449,0.0684 8.23828,0.0684 C3.94141,0.0684 0.36719,3.6426 0.36719,7.94922 C0.36719,12.25586 3.95117,15.830078 8.24805,15.830078 Z M8.24805,14.345703 C4.70312,14.345703 1.87109,11.50391 1.87109,7.94922 C1.87109,4.3945 4.69336,1.5527 8.23828,1.5527 C11.793,1.5527 14.6348,4.3945 14.6445252,7.94922 C14.6543,11.50391 11.8027,14.345703 8.24805,14.345703 Z M8.22852,11.57227 C8.69727,11.57227 8.9707,11.25977 8.9707,10.74219 L8.9707,8.68164 L11.1973,8.68164 C11.6953,8.68164 12.0371,8.42773 12.0371,7.95898 C12.0371,7.48047 11.7148,7.2168 11.1973,7.2168 L8.9707,7.2168 L8.9707,4.9902 C8.9707,4.4727 8.69727,4.1504 8.22852,4.1504 C7.75977,4.1504 7.50586,4.4922 7.50586,4.9902 L7.50586,7.2168 L5.29883,7.2168 C4.78125,7.2168 4.44922,7.48047 4.44922,7.95898 C4.44922,8.42773 4.80078,8.68164 5.29883,8.68164 L7.50586,8.68164 L7.50586,10.74219 C7.50586,11.24023 7.75977,11.57227 8.22852,11.57227 Z" id="Shape"></path>
                </g>
                <g id="Group" transform="translate(282.506000, 1915.000000)" fill="#000000" fill-rule="nonzero">
                    <path d="M10.709,20.91016 C16.1582,20.91016 20.6699,16.39844 20.6699,10.94922 C20.6699,5.5098 16.1484,0.9883 10.6992,0.9883 C5.25977,0.9883 0.74805,5.5098 0.74805,10.94922 C0.74805,16.39844 5.26953,20.91016 10.709,20.91016 Z M10.709,19.25 C6.09961,19.25 2.41797,15.55859 2.41797,10.94922 C2.41797,6.3496 6.08984,2.6484 10.6992,2.6484 C15.3086,2.6484 19,6.3496 19.009819,10.94922 C19.0195,15.55859 15.3184,19.25 10.709,19.25 Z M10.6895,15.58789 C11.207,15.58789 11.5195,15.22656 11.5195,14.66016 L11.5195,11.76953 L14.5762,11.76953 C15.123,11.76953 15.5039,11.48633 15.5039,10.96875 C15.5039,10.44141 15.1426,10.13867 14.5762,10.13867 L11.5195,10.13867 L11.5195,7.0723 C11.5195,6.4961 11.207,6.1445 10.6895,6.1445 C10.1719,6.1445 9.8789,6.5156 9.8789,7.0723 L9.8789,10.13867 L6.83203,10.13867 C6.26562,10.13867 5.89453,10.44141 5.89453,10.96875 C5.89453,11.48633 6.28516,11.76953 6.83203,11.76953 L9.8789,11.76953 L9.8789,14.66016 C9.8789,15.20703 10.1719,15.58789 10.6895,15.58789 Z" id="Shape"></path>
                </g>
                <g id="Group" transform="translate(306.924000, 1913.000000)" fill="#000000" fill-rule="nonzero">
                    <path d="M12.9707,25.67383 C19.9336,25.67383 25.6953,19.921875 25.6953,12.95898 C25.6953,5.9961 19.9238,0.2441 12.9609,0.2441 C6.00781,0.2441 0.25586,5.9961 0.25586,12.95898 C0.25586,19.921875 6.01758,25.67383 12.9707,25.67383 Z M12.9707,23.85742 C6.93555,23.85742 2.08203,18.99414 2.08203,12.95898 C2.08203,6.9238 6.92578,2.0605 12.9609,2.0605 C19.0059,2.0605 23.8594,6.9238 23.8691148,12.95898 C23.8789,18.99414 19.0156,23.85742 12.9707,23.85742 Z M12.9512,18.93555 C13.5176,18.93555 13.8691,18.54492 13.8691,17.93945 L13.8691,13.86719 L18.1074,13.86719 C18.6934,13.86719 19.1133,13.53516 19.1133,12.97852 C19.1133,12.40234 18.7227,12.06055 18.1074,12.06055 L13.8691,12.06055 L13.8691,7.8125 C13.8691,7.1973 13.5176,6.8066 12.9512,6.8066 C12.3848,6.8066 12.0625,7.2168 12.0625,7.8125 L12.0625,12.06055 L7.83398,12.06055 C7.21875,12.06055 6.80859,12.40234 6.80859,12.97852 C6.80859,13.53516 7.23828,13.86719 7.83398,13.86719 L12.0625,13.86719 L12.0625,17.93945 C12.0625,18.52539 12.3848,18.93555 12.9512,18.93555 Z" id="Shape"></path>
                </g>
                <text id="Design-Variations" fill="#000000" fill-rule="nonzero" font-family="Helvetica-Bold, Helvetica" font-size="13" font-weight="bold">
                    <tspan x="263" y="1953">Design Variations</tspan>
                </text>
                <text id="Symbols-are-supported-in-up-to-nine-weights-and-three-scales." fill="#000000" fill-rule="nonzero" font-family="Helvetica" font-size="13" font-weight="normal">
                    <tspan x="263" y="1971">Symbols are supported in up to nine weights and three scales.</tspan>
                </text>
                <text id="For-optimal-layout-with-text-and-other-symbols,-vertically-align" fill="#000000" fill-rule="nonzero" font-family="Helvetica" font-size="13" font-weight="normal">
                    <tspan x="263" y="1989">For optimal layout with text and other symbols, vertically align</tspan>
                </text>
                <text id="symbols-with-the-adjacent-text." fill="#000000" fill-rule="nonzero" font-family="Helvetica" font-size="13" font-weight="normal">
                    <tspan x="263" y="2007">symbols with the adjacent text.</tspan>
                </text>
                <rect id="Rectangle" fill="#00AEEF" fill-rule="nonzero" opacity="0.4" x="776" y="1919" width="3" height="14"></rect>
                <g id="Group" transform="translate(779.000000, 1918.000000)" fill="#000000" fill-rule="nonzero">
                    <path d="M10.5273,15 L12.373,15 L7.17773,0.9082 L5.43945,0.9082 L0.244141,15 L2.08984,15 L3.50586,10.9668 L9.11133,10.9668 L10.5273,15 Z M6.2793,3.0469 L6.33789,3.0469 L8.59375,9.47266 L4.02344,9.47266 L6.2793,3.0469 Z" id="Shape"></path>
                </g>
                <rect id="Rectangle" fill="#00AEEF" fill-rule="nonzero" opacity="0.4" x="791.617" y="1919" width="3" height="14"></rect>
                <text id="Margins" fill="#000000" fill-rule="nonzero" font-family="Helvetica-Bold, Helvetica" font-size="13" font-weight="bold">
                    <tspan x="776" y="1953">Margins</tspan>
                </text>
                <text id="Leading-and-trailing-margins-on-the-left-and-right-side-of-each-symbol" fill="#000000" fill-rule="nonzero" font-family="Helvetica" font-size="13" font-weight="normal">
                    <tspan x="776" y="1971">Leading and trailing margins on the left and right side of each symbol</tspan>
                </text>
                <text id="can-be-adjusted-by-modifying-the-width-of-the-blue-rectangles." fill="#000000" fill-rule="nonzero" font-family="Helvetica" font-size="13" font-weight="normal">
                    <tspan x="776" y="1989">can be adjusted by modifying the width of the blue rectangles.</tspan>
                </text>
                <text id="Modifications-are-automatically-applied-proportionally-to-all" fill="#000000" fill-rule="nonzero" font-family="Helvetica" font-size="13" font-weight="normal">
                    <tspan x="776" y="2007">Modifications are automatically applied proportionally to all</tspan>
                </text>
                <text id="scales-and-weights." fill="#000000" fill-rule="nonzero" font-family="Helvetica" font-size="13" font-weight="normal">
                    <tspan x="776" y="2025">scales and weights.</tspan>
                </text>
                <g id="Group" transform="translate(1291.000000, 1915.000000)" fill="#000000" fill-rule="nonzero">
                    <path d="M0.83203,21.11523 L2.375,22.6582 C3.22461,23.48828 4.19141,23.41992 5.06055,22.46289 L15.2754,11.33984 C15.7051,11.63281 16.0957,11.62305 16.5645,11.52539 L17.6094,11.31055 L18.3027,12.00391 L18.2539,12.52148 C18.1855,13.04883 18.3516,13.46875 18.8496,13.9668 L19.6602,14.77734 C20.168,15.28516 20.8223,15.31445 21.3008,14.83594 L24.5527,11.58398 C25.0312,11.10547 25.0117,10.45117 24.5039,9.94336 L23.6836,9.12305 C23.1855,8.625 22.7754,8.44922 22.2383,8.52734 L21.7109,8.58594 L21.0566,7.9219 L21.3398,6.7793 C21.4863,6.2129 21.3398,5.7441 20.7148,5.1387 L18.3027,2.7461 C14.7578,-0.7793 10.2266,-0.6719 7.11133,2.4629 C6.69141,2.8926 6.64258,3.4785 6.91602,3.9082 C7.15039,4.2793 7.62891,4.5039 8.2734,4.3379 C9.7871,3.957 11.3008,4.0742 12.7852,5.0801 L12.1602,6.6621 C11.9258,7.248 11.9453,7.7266 12.1797,8.16602 L1.01758,18.439453 C0.08008,19.30859 -0.02734,20.25586 0.83203,21.11523 Z M8.6738,2.8535 C11.3398,0.8613 14.6504,1.1738 17.0527,3.5859 L19.6797,6.1934 C19.9141,6.4277 19.9434,6.6133 19.8848,6.9062 L19.5039,8.46875 L21.0762,10.04102 L22.043,9.95312 C22.3262,9.92383 22.4141,9.94336 22.6387,10.16797 L23.2637,10.79297 L20.5098,13.53711 L19.8848,12.92188 C19.6602,12.69727 19.6406,12.59961 19.6699,12.31641 L19.7578,11.35938 L18.1953,9.79688 L16.5742,10.10938 C16.291,10.16797 16.1445,10.16797 15.9102,9.92383 L13.7324,7.7461 C13.5078,7.5117 13.4785,7.375 13.6055,7.0527 L14.5527,4.7773 C12.9512,3.2441 10.8418,2.3945 8.8008,3.0488 C8.7129,3.0781 8.6445,3.0586 8.6152,3.0195 C8.5859,2.9707 8.5859,2.9219 8.6738,2.8535 Z M2.10156,20.41211 C1.61328,19.91406 1.78906,19.61133 2.12109,19.30859 L13.0781,9.19141 L14.3086,10.42188 L4.15234,21.34961 C3.84961,21.68164 3.46875,21.7793 3.06836,21.37891 L2.10156,20.41211 Z" id="Shape"></path>
                </g>
                <text id="Exporting" fill="#000000" fill-rule="nonzero" font-family="Helvetica-Bold, Helvetica" font-size="13" font-weight="bold">
                    <tspan x="1289" y="1953">Exporting</tspan>
                </text>
                <text id="Symbols-should-be-outlined-when-exporting-to-ensure-the" fill="#000000" fill-rule="nonzero" font-family="Helvetica" font-size="13" font-weight="normal">
                    <tspan x="1289" y="1971">Symbols should be outlined when exporting to ensure the</tspan>
                </text>
                <text id="design-is-preserved-when-submitting-to-Xcode." fill="#000000" fill-rule="nonzero" font-family="Helvetica" font-size="13" font-weight="normal">
                    <tspan x="1289" y="1989">design is preserved when submitting to Xcode.</tspan>
                </text>
                <text id="template-version" fill="#000000" fill-rule="nonzero" font-family="Helvetica" font-size="13" font-weight="normal">
                    <tspan x="2952" y="1933">Template v.1.0</tspan>
                </text>
                <text id="Generated-from-bubble.left.fill" fill="#000000" fill-rule="nonzero" font-family="Helvetica" font-size="13" font-weight="normal">
                    <tspan x="2865" y="1951">Generated from bubble.left.fill</tspan>
                </text>
                <text id="Typeset-at-100-points" fill="#000000" fill-rule="nonzero" font-family="Helvetica" font-size="13" font-weight="normal">
                    <tspan x="2912" y="1969">Typeset at 100 points</tspan>
                </text>
                <text id="Small" fill="#000000" fill-rule="nonzero" font-family="Helvetica" font-size="13" font-weight="normal">
                    <tspan x="263" y="726">Small</tspan>
                </text>
                <text id="Medium" fill="#000000" fill-rule="nonzero" font-family="Helvetica" font-size="13" font-weight="normal">
                    <tspan x="263" y="1156">Medium</tspan>
                </text>
                <text id="Large" fill="#000000" fill-rule="nonzero" font-family="Helvetica" font-size="13" font-weight="normal">
                    <tspan x="263" y="1586">Large</tspan>
                </text>
            </g>
            <g id="Guides" transform="translate(263.000000, 625.000000)">
                <g id="H-reference" transform="translate(76.000000, 0.000000)" fill="#27AAE1" fill-rule="nonzero">
                    <path d="M54.9316,71 L57.666,71 L30.5664,0.541 L28.0762,0.541 L0.976562,71 L3.66211,71 L12.9395,46.5371 L45.7031,46.5371 L54.9316,71 Z M29.1992,3.9102 L29.4434,3.9102 L44.8242,44.291 L13.8184,44.291 L29.1992,3.9102 Z" id="Shape"></path>
                </g>
                <line x1="0" y1="71" x2="2773" y2="71" id="Baseline-S" stroke="#27AAE1" stroke-width="0.577"></line>
                <line x1="0" y1="0.541" x2="2773" y2="0.541" id="Capline-S" stroke="#27AAE1" stroke-width="0.577"></line>
                <g id="H-reference" transform="translate(76.000000, 430.000000)" fill="#27AAE1" fill-rule="nonzero">
                    <path d="M54.9316,71 L57.666,71 L30.5664,0.541 L28.0762,0.541 L0.976562,71 L3.66211,71 L12.9395,46.5371 L45.7031,46.5371 L54.9316,71 Z M29.1992,3.9102 L29.4434,3.9102 L44.8242,44.291 L13.8184,44.291 L29.1992,3.9102 Z" id="Shape"></path>
                </g>
                <line x1="0" y1="501" x2="2773" y2="501" id="Baseline-M" stroke="#27AAE1" stroke-width="0.577"></line>
                <line x1="0" y1="430.54" x2="2773" y2="430.54" id="Capline-M" stroke="#27AAE1" stroke-width="0.577"></line>
                <g id="H-reference" transform="translate(76.000000, 860.000000)" fill="#27AAE1" fill-rule="nonzero">
                    <path d="M54.9316,71 L57.666,71 L30.5664,0.541 L28.0762,0.541 L0.976562,71 L3.66211,71 L12.9395,46.5371 L45.7031,46.5371 L54.9316,71 Z M29.1992,3.9102 L29.4434,3.9102 L44.8242,44.291 L13.8184,44.291 L29.1992,3.9102 Z" id="Shape"></path>
                </g>
                <line x1="0" y1="931" x2="2773" y2="931" id="Baseline-L" stroke="#27AAE1" stroke-width="0.577"></line>
                <line x1="0" y1="860.54" x2="2773" y2="860.54" id="Capline-L" stroke="#27AAE1" stroke-width="0.577"></line>
                <rect id="left-margin" fill="#00AEEF" fill-rule="nonzero" opacity="0.4" x="1158.58" y="405.79" width="9.4512" height="119.336"></rect>
                <rect id="right-margin" fill="#00AEEF" fill-rule="nonzero" opacity="0.4" x="1203.65" y="405.79" width="9.4512" height="119.336"></rect>
            </g>
            <g id="Symbols" transform="translate(493.000000, 618.000000)" fill="#000000" fill-rule="nonzero">
                <g id="Black-L" transform="translate(2369.240000, 835.000000)">
                    <path d="M84.8772339,60.877304 L88.6706665,60.877304 C90.5077429,60.877304 91.99664,59.388446 91.99664,57.551387 L91.99664,47.0165798 C91.99664,47.0066319 91.98992,47 91.98005,47 L80.719032,47 C78.8886755,47 77.4031384,48.4855526 77.4031384,50.315963 L77.4031384,54.122696 C77.4031384,58.134998 74.0838849,61.37471 70.0383268,61.238756 C66.1719193,61.109417 63.1610292,57.806726 63.1610292,53.933675 L63.1610292,50.332553 C63.1610292,48.4921844 61.6688561,47 59.8285037,47 L50.0165798,47 C50.0066319,47 50,47.0066319 50,47.0165798 L50,68 L50,88.98341 C50,88.99328 50.0066319,89 50.0165798,89 L59.8285037,89 C61.6688561,89 63.1610292,87.50774 63.1610292,85.66751 L63.1610292,82.06622 C63.1610292,78.19655 66.1686013,74.89052 70.0383268,74.76116 C74.0838849,74.62529 77.4031384,77.86496 77.4031384,81.87722 L77.4031384,85.6841 C77.4031384,87.51446 78.8886755,89 80.719032,89 L91.98341,89 C91.99328,89 92,88.99328 92,88.98341 L92,78.44855 C92,76.61147 90.5111029,75.12278 88.6740265,75.12278 L84.8805939,75.12278 C80.9479315,75.12278 77.7611877,71.93267 77.7611877,68.00336 C77.7578277,64.067267 80.9445715,60.877304 84.8772339,60.877304 Z" id="Path"></path>
                </g>
                <g id="Heavy-L" transform="translate(2073.070000, 837.000000)">
                    <path d="M84.0468235,58.546892 L87.7499363,58.546892 C89.5432728,58.546892 90.99672,57.093483 90.99672,55.3001635 L90.99672,45.0161851 C90.99672,45.006474 90.99016,45 90.980525,45 L79.9876265,45 C78.2008499,45 76.7506828,46.4501823 76.7506828,48.2370115 L76.7506828,51.953108 C76.7506828,55.869879 73.5104591,59.032455 69.5612238,58.899738 C65.7868736,58.7734785 62.8476713,55.549423 62.8476713,51.7685875 L62.8476713,48.2532065 C62.8476713,46.4566562 61.3910262,45 59.5944917,45 L50.016185,45 C50.006474,45 50,45.006474 50,45.0161851 L50,65.5 L50,85.983805 C50,85.99344 50.006474,86 50.016185,86 L59.5944917,86 C61.3910262,86 62.8476713,84.54327 62.8476713,82.746855 L62.8476713,79.23131 C62.8476713,75.453775 65.7836346,72.22646 69.5612238,72.10018 C73.5104591,71.967545 76.7506828,75.13008 76.7506828,79.04681 L76.7506828,82.76305 C76.7506828,84.54983 78.2008499,86 79.9876265,86 L90.983805,86 C90.99344,86 91,85.99344 91,85.983805 L91,75.699775 C91,73.906435 89.5465528,72.45319 87.7532163,72.45319 L84.0501035,72.45319 C80.211076,72.45319 77.1002071,69.339035 77.1002071,65.50328 C77.0969271,61.6609035 80.207796,58.546892 84.0468235,58.546892 Z" id="Path"></path>
                </g>
                <g id="Bold-L" transform="translate(1776.970000, 838.000000)">
                    <path d="M83.2164132,58.21648 L86.8292062,58.21648 C88.5788028,58.21648 89.9968,56.79852 89.9968,55.04894 L89.9968,45.0157903 C89.9968,45.0063161 89.9904,45 89.981,45 L79.2562209,45 C77.5130243,45 76.0982271,46.414812 76.0982271,48.15806 L76.0982271,51.78352 C76.0982271,55.60476 72.9370332,58.6902 69.0841207,58.56072 C65.4018279,58.43754 62.5343135,55.29212 62.5343135,51.6035 L62.5343135,48.17386 C62.5343135,46.421128 61.1131963,45 59.3604797,45 L50.0157903,45 C50.0063161,45 50,45.0063161 50,45.0157903 L50,65 L50,84.9842 C50,84.9936 50.0063161,85 50.0157903,85 L59.3604797,85 C61.1131963,85 62.5343135,83.5788 62.5343135,81.8262 L62.5343135,78.3964 C62.5343135,74.711 65.3986679,71.5624 69.0841207,71.4392 C72.9370332,71.3098 76.0982271,74.3952 76.0982271,78.2164 L76.0982271,81.842 C76.0982271,83.5852 77.5130243,85 79.2562209,85 L89.9842,85 C89.9936,85 90,84.9936 90,84.9842 L90,74.951 C90,73.2014 88.5820028,71.7836 86.8324062,71.7836 L83.2196132,71.7836 C79.4742205,71.7836 76.4392264,68.7454 76.4392264,65.0032 C76.4360264,61.25454 79.4710205,58.21648 83.2164132,58.21648 Z" id="Path"></path>
                </g>
                <g id="Semibold-L" transform="translate(1480.700000, 840.000000)">
                    <path d="M82.3860029,55.886068 L85.908476,55.886068 C87.6143327,55.886068 88.99688,54.503557 88.99688,52.7977165 L88.99688,43.0153955 C88.99688,43.0061582 88.99064,43 88.981475,43 L78.5248154,43 C76.8251987,43 75.4457714,44.3794417 75.4457714,46.0791085 L75.4457714,49.613932 C75.4457714,53.339641 72.3636074,56.347945 68.6070177,56.221702 C65.0167822,56.1016015 62.2209557,53.034817 62.2209557,49.4384125 L62.2209557,46.0945135 C62.2209557,44.3855998 60.8353664,43 59.1264677,43 L50.0153955,43 C50.0061582,43 50,43.0061582 50,43.0153955 L50,62.5 L50,81.984595 C50,81.99376 50.0061582,82 50.0153955,82 L59.1264677,82 C60.8353664,82 62.2209557,80.61433 62.2209557,78.905545 L62.2209557,75.56149 C62.2209557,71.968225 65.0137012,68.89834 68.6070177,68.77822 C72.3636074,68.652055 75.4457714,71.66032 75.4457714,75.38599 L75.4457714,78.92095 C75.4457714,80.62057 76.8251987,82 78.5248154,82 L88.984595,82 C88.99376,82 89,81.99376 89,81.984595 L89,72.202225 C89,70.496365 87.6174527,69.11401 85.911596,69.11401 L82.3891229,69.11401 C78.737365,69.11401 75.7782458,66.151765 75.7782458,62.50312 C75.7751258,58.8481765 78.734245,55.886068 82.3860029,55.886068 Z" id="Path"></path>
                </g>
                <g id="Medium-L" transform="translate(1184.300000, 841.000000)">
                    <path d="M81.5555926,55.555656 L84.9877459,55.555656 C86.6498626,55.555656 87.99696,54.208594 87.99696,52.546493 L87.99696,43.0150008 C87.99696,43.0060003 87.99088,43 87.98195,43 L77.7934099,43 C76.1373731,43 74.7933157,44.3440714 74.7933157,46.000157 L74.7933157,49.444344 C74.7933157,53.074522 71.7901816,56.00569 68.1299147,55.882684 C64.6317365,55.765663 61.9075978,52.777514 61.9075978,49.273325 L61.9075978,46.015167 C61.9075978,44.3500716 60.5575365,43 58.8924557,43 L50.0150008,43 C50.0060003,43 50,43.0060003 50,43.0150008 L50,62 L50,80.98499 C50,80.99392 50.0060003,81 50.0150008,81 L58.8924557,81 C60.5575365,81 61.9075978,79.64986 61.9075978,77.98489 L61.9075978,74.72658 C61.9075978,71.22545 64.6287345,68.23428 68.1299147,68.11724 C71.7901816,67.99431 74.7933157,70.92544 74.7933157,74.55558 L74.7933157,77.9999 C74.7933157,79.65594 76.1373731,81 77.7934099,81 L87.98499,81 C87.99392,81 88,80.99392 88,80.98499 L88,71.45345 C88,69.79133 86.6529026,68.44442 84.9907859,68.44442 L81.5586325,68.44442 C78.0005095,68.44442 75.1172651,65.55813 75.1172651,62.00304 C75.1142251,58.441813 77.9974695,55.555656 81.5555926,55.555656 Z" id="Path"></path>
                </g>
                <g id="Regular-L" transform="translate(888.010000, 842.000000)">
                    <path d="M80.7251822,54.225244 L84.0670157,54.225244 C85.6853926,54.225244 86.99704,52.913631 86.99704,51.2952695 L86.99704,42.014606 C86.99704,42.0058424 86.99112,42 86.982425,42 L77.0620044,42 C75.4495475,42 74.1408601,43.3087011 74.1408601,44.9212055 L74.1408601,48.274756 C74.1408601,51.809403 71.2167557,54.663435 67.6528117,54.543666 C64.2466908,54.4297245 61.59424,51.520211 61.59424,48.1082375 L61.59424,44.9358205 C61.59424,43.3145434 60.2797066,42 58.6584437,42 L50.014606,42 C50.0058424,42 50,42.0058424 50,42.014606 L50,60.5 L50,78.985385 C50,78.99408 50.0058424,79 50.014606,79 L58.6584437,79 C60.2797066,79 61.59424,77.68539 61.59424,76.064235 L61.59424,72.89167 C61.59424,69.482675 64.2437678,66.57022 67.6528117,66.45626 C71.2167557,66.336565 74.1408601,69.19056 74.1408601,72.72517 L74.1408601,76.07885 C74.1408601,77.69131 75.4495475,79 77.0620044,79 L86.985385,79 C86.99408,79 87,78.99408 87,78.985385 L87,69.704675 C87,68.086295 85.6883526,66.77483 84.0699757,66.77483 L80.7281422,66.77483 C77.263654,66.77483 74.4562844,63.964495 74.4562844,60.50296 C74.4533244,57.0354495 77.260694,54.225244 80.7251822,54.225244 Z" id="Path"></path>
                </g>
                <g id="Light-L" transform="translate(592.200000, 843.000000)">
                    <path d="M79.8947719,53.894832 L83.1462856,53.894832 C84.7209225,53.894832 85.99712,52.618668 85.99712,51.044046 L85.99712,42.0142113 C85.99712,42.0056845 85.99136,42 85.9829,42 L76.3305988,42 C74.7617219,42 73.4884044,43.2733308 73.4884044,44.842254 L73.4884044,48.105168 C73.4884044,51.544284 70.6433299,54.32118 67.1757087,54.204648 C63.8616451,54.093786 61.2808822,51.262908 61.2808822,47.94315 L61.2808822,44.856474 C61.2808822,43.2790152 60.0018767,42 58.4244317,42 L50.0142113,42 C50.0056845,42 50,42.0056845 50,42.0142113 L50,60 L50,77.98578 C50,77.99424 50.0056845,78 50.0142113,78 L58.4244317,78 C60.0018767,78 61.2808822,76.72092 61.2808822,75.14358 L61.2808822,72.05676 C61.2808822,68.7399 63.8588011,65.90616 67.1757087,65.79528 C70.6433299,65.67882 73.4884044,68.45568 73.4884044,71.89476 L73.4884044,75.1578 C73.4884044,76.72668 74.7617219,78 76.3305988,78 L85.98578,78 C85.99424,78 86,77.99424 86,77.98578 L86,68.9559 C86,67.38126 84.7238025,66.10524 83.1491656,66.10524 L79.8976519,66.10524 C76.5267985,66.10524 73.7953038,63.37086 73.7953038,60.00288 C73.7924238,56.629086 76.5239185,53.894832 79.8947719,53.894832 Z" id="Path"></path>
                </g>
                <g id="Thin-L" transform="translate(296.683000, 845.000000)">
                    <path d="M78.0643616,51.56442 L81.2255554,51.56442 C82.7564524,51.56442 83.9972,50.323705 83.9972,48.7928225 L83.9972,40.0138165 C83.9972,40.0055266 83.9916,40 83.983375,40 L74.5991933,40 C73.0738963,40 71.8359487,41.2379605 71.8359487,42.7633025 L71.8359487,45.93558 C71.8359487,49.279165 69.0699041,51.978925 65.6986057,51.86563 C62.4765994,51.7578475 59.9675243,49.005605 59.9675243,45.7780625 L59.9675243,42.7771275 C59.9675243,41.243487 58.7240467,40 57.1904197,40 L49.0138165,40 C49.0055266,40 49,40.0055266 49,40.0138165 L49,57.5 L49,74.986175 C49,74.9944 49.0055266,75 49.0138165,75 L57.1904197,75 C58.7240467,75 59.9675243,73.75645 59.9675243,72.222925 L59.9675243,69.22185 C59.9675243,65.997125 62.4738344,63.2421 65.6986057,63.1343 C69.0699041,63.021075 71.8359487,65.7208 71.8359487,69.06435 L71.8359487,72.23675 C71.8359487,73.76205 73.0738963,75 74.5991933,75 L83.986175,75 C83.9944,75 84,74.9944 84,74.986175 L84,66.207125 C84,64.676225 82.7592524,63.43565 81.2283554,63.43565 L78.0671616,63.43565 C74.7899429,63.43565 72.1343231,60.777225 72.1343231,57.5028 C72.1315231,54.2227225 74.7871429,51.56442 78.0643616,51.56442 Z" id="Path"></path>
                </g>
                <g id="Ultralight-L" transform="translate(0.607000, 846.000000)">
                    <path d="M77.2339512,51.234008 L80.3048253,51.234008 C81.7919824,51.234008 82.99728,50.028742 82.99728,48.541599 L82.99728,40.0134218 C82.99728,40.0053687 82.99184,40 82.98385,40 L73.8677878,40 C72.3860707,40 71.183493,41.2025902 71.183493,42.684351 L71.183493,45.765992 C71.183493,49.014046 68.4964783,51.63667 65.2215026,51.526612 C62.0915537,51.421909 59.6541665,48.748302 59.6541665,45.612975 L59.6541665,42.697781 C59.6541665,41.2079588 58.4462168,40 56.9564077,40 L49.0134217,40 C49.0053687,40 49,40.0053687 49,40.0134218 L49,57 L49,73.98657 C49,73.99456 49.0053687,74 49.0134217,74 L56.9564077,74 C58.4462168,74 59.6541665,72.79198 59.6541665,71.30227 L59.6541665,68.38694 C59.6541665,65.25435 62.0888677,62.57804 65.2215026,62.47332 C68.4964783,62.36333 71.183493,64.98592 71.183493,68.23394 L71.183493,71.3157 C71.183493,72.79742 72.3860707,74 73.8677878,74 L82.98657,74 C82.99456,74 83,73.99456 83,73.98657 L83,65.45835 C83,63.97119 81.7947023,62.76606 80.3075452,62.76606 L77.2366712,62.76606 C74.0530874,62.76606 71.4733425,60.18359 71.4733425,57.00272 C71.4706225,53.816359 74.0503674,51.234008 77.2339512,51.234008 Z" id="Path"></path>
                </g>
                <g id="Black-M" transform="translate(2384.580000, 418.000000)">
                    <path d="M68.2164132,48.21648 L71.8292062,48.21648 C73.5788028,48.21648 74.9968,46.79852 74.9968,45.04894 L74.9968,35.0157903 C74.9968,35.0063161 74.9904,35 74.981,35 L64.2562209,35 C62.5130243,35 61.0982271,36.414812 61.0982271,38.15806 L61.0982271,41.78352 C61.0982271,45.60476 57.9370332,48.6902 54.0841207,48.56072 C50.4018279,48.43754 47.5343135,45.29212 47.5343135,41.6035 L47.5343135,38.17386 C47.5343135,36.421128 46.1131963,35 44.3604797,35 L35.0157903,35 C35.0063161,35 35,35.0063161 35,35.0157903 L35,55 L35,74.9842 C35,74.9936 35.0063161,75 35.0157903,75 L44.3604797,75 C46.1131963,75 47.5343135,73.5788 47.5343135,71.8262 L47.5343135,68.3964 C47.5343135,64.711 50.3986679,61.5624 54.0841207,61.4392 C57.9370332,61.3098 61.0982271,64.3952 61.0982271,68.2164 L61.0982271,71.842 C61.0982271,73.5852 62.5130243,75 64.2562209,75 L74.9842,75 C74.9936,75 75,74.9936 75,74.9842 L75,64.951 C75,63.2014 73.5820028,61.7836 71.8324062,61.7836 L68.2196132,61.7836 C64.4742205,61.7836 61.4392264,58.7454 61.4392264,55.0032 C61.4360264,51.25454 64.4710205,48.21648 68.2164132,48.21648 Z" id="Path"></path>
                </g>
                <g id="Heavy-M" transform="translate(2088.230000, 420.000000)">
                    <path d="M68.3860029,45.886068 L71.908476,45.886068 C73.6143327,45.886068 74.99688,44.503557 74.99688,42.7977165 L74.99688,33.0153955 C74.99688,33.0061582 74.99064,33 74.981475,33 L64.5248154,33 C62.8251987,33 61.4457714,34.3794417 61.4457714,36.0791085 L61.4457714,39.613932 C61.4457714,43.339641 58.3636074,46.347945 54.6070177,46.221702 C51.0167822,46.1016015 48.2209557,43.034817 48.2209557,39.4384125 L48.2209557,36.0945135 C48.2209557,34.3855998 46.8353664,33 45.1264677,33 L36.0153955,33 C36.0061582,33 36,33.0061582 36,33.0153955 L36,52.5 L36,71.984595 C36,71.99376 36.0061582,72 36.0153955,72 L45.1264677,72 C46.8353664,72 48.2209557,70.61433 48.2209557,68.905545 L48.2209557,65.56149 C48.2209557,61.968225 51.0137012,58.89834 54.6070177,58.77822 C58.3636074,58.652055 61.4457714,61.66032 61.4457714,65.38599 L61.4457714,68.92095 C61.4457714,70.62057 62.8251987,72 64.5248154,72 L74.984595,72 C74.99376,72 75,71.99376 75,71.984595 L75,62.202225 C75,60.496365 73.6174527,59.11401 71.911596,59.11401 L68.3891229,59.11401 C64.737365,59.11401 61.7782458,56.151765 61.7782458,52.50312 C61.7751258,48.8481765 64.734245,45.886068 68.3860029,45.886068 Z" id="Path"></path>
                </g>
                <g id="Bold-M" transform="translate(1791.940000, 422.000000)">
                    <path d="M67.5555926,44.555656 L70.9877459,44.555656 C72.6498626,44.555656 73.99696,43.208594 73.99696,41.546493 L73.99696,32.0150008 C73.99696,32.0060003 73.99088,32 73.98195,32 L63.7934099,32 C62.1373731,32 60.7933157,33.3440714 60.7933157,35.000157 L60.7933157,38.444344 C60.7933157,42.074522 57.7901816,45.00569 54.1299147,44.882684 C50.6317365,44.765663 47.9075978,41.777514 47.9075978,38.273325 L47.9075978,35.015167 C47.9075978,33.3500716 46.5575365,32 44.8924557,32 L36.0150008,32 C36.0060003,32 36,32.0060003 36,32.0150008 L36,51 L36,69.98499 C36,69.99392 36.0060003,70 36.0150008,70 L44.8924557,70 C46.5575365,70 47.9075978,68.64986 47.9075978,66.98489 L47.9075978,63.72658 C47.9075978,60.22545 50.6287345,57.23428 54.1299147,57.11724 C57.7901816,56.99431 60.7933157,59.92544 60.7933157,63.55558 L60.7933157,66.9999 C60.7933157,68.65594 62.1373731,70 63.7934099,70 L73.98499,70 C73.99392,70 74,69.99392 74,69.98499 L74,60.45345 C74,58.79133 72.6529026,57.44442 70.9907859,57.44442 L67.5586325,57.44442 C64.0005095,57.44442 61.1172651,54.55813 61.1172651,51.00304 C61.1142251,47.441813 63.9974695,44.555656 67.5555926,44.555656 Z" id="Path"></path>
                </g>
                <g id="Semibold-M" transform="translate(1495.520000, 423.000000)">
                    <path d="M66.7251822,43.225244 L70.0670157,43.225244 C71.6853926,43.225244 72.99704,41.913631 72.99704,40.2952695 L72.99704,31.014606 C72.99704,31.0058424 72.99112,31 72.982425,31 L63.0620044,31 C61.4495475,31 60.1408601,32.3087011 60.1408601,33.9212055 L60.1408601,37.274756 C60.1408601,40.809403 57.2167557,43.663435 53.6528117,43.543666 C50.2466908,43.4297245 47.59424,40.520211 47.59424,37.1082375 L47.59424,33.9358205 C47.59424,32.3145434 46.2797066,31 44.6584437,31 L36.014606,31 C36.0058424,31 36,31.0058424 36,31.014606 L36,49.5 L36,67.985385 C36,67.99408 36.0058424,68 36.014606,68 L44.6584437,68 C46.2797066,68 47.59424,66.68539 47.59424,65.064235 L47.59424,61.89167 C47.59424,58.482675 50.2437678,55.57022 53.6528117,55.45626 C57.2167557,55.336565 60.1408601,58.19056 60.1408601,61.72517 L60.1408601,65.07885 C60.1408601,66.69131 61.4495475,68 63.0620044,68 L72.985385,68 C72.99408,68 73,67.99408 73,67.985385 L73,58.704675 C73,57.086295 71.6883526,55.77483 70.0699757,55.77483 L66.7281422,55.77483 C63.263654,55.77483 60.4562844,52.964495 60.4562844,49.50296 C60.4533244,46.0354495 63.260694,43.225244 66.7251822,43.225244 Z" id="Path"></path>
                </g>
                <g id="Medium-M" transform="translate(1199.030000, 424.000000)">
                    <path d="M66.8947719,42.894832 L70.1462856,42.894832 C71.7209225,42.894832 72.99712,41.618668 72.99712,40.044046 L72.99712,31.0142113 C72.99712,31.0056845 72.99136,31 72.9829,31 L63.3305988,31 C61.7617219,31 60.4884044,32.2733308 60.4884044,33.842254 L60.4884044,37.105168 C60.4884044,40.544284 57.6433299,43.32118 54.1757087,43.204648 C50.8616451,43.093786 48.2808822,40.262908 48.2808822,36.94315 L48.2808822,33.856474 C48.2808822,32.2790152 47.0018767,31 45.4244317,31 L37.0142113,31 C37.0056845,31 37,31.0056845 37,31.0142113 L37,49 L37,66.98578 C37,66.99424 37.0056845,67 37.0142113,67 L45.4244317,67 C47.0018767,67 48.2808822,65.72092 48.2808822,64.14358 L48.2808822,61.05676 C48.2808822,57.7399 50.8588011,54.90616 54.1757087,54.79528 C57.6433299,54.67882 60.4884044,57.45568 60.4884044,60.89476 L60.4884044,64.1578 C60.4884044,65.72668 61.7617219,67 63.3305988,67 L72.98578,67 C72.99424,67 73,66.99424 73,66.98578 L73,57.9559 C73,56.38126 71.7238025,55.10524 70.1491656,55.10524 L66.8976519,55.10524 C63.5267985,55.10524 60.7953038,52.37086 60.7953038,49.00288 C60.7924238,45.629086 63.5239185,42.894832 66.8947719,42.894832 Z" id="Path"></path>
                </g>
                <g id="Regular-M" transform="translate(902.580000, 425.000000)">
                    <path d="M65.0643616,41.56442 L68.2255554,41.56442 C69.7564524,41.56442 70.9972,40.323705 70.9972,38.7928225 L70.9972,30.0138165 C70.9972,30.0055266 70.9916,30 70.983375,30 L61.5991933,30 C60.0738963,30 58.8359487,31.2379605 58.8359487,32.7633025 L58.8359487,35.93558 C58.8359487,39.279165 56.0699041,41.978925 52.6986057,41.86563 C49.4765994,41.7578475 46.9675243,39.005605 46.9675243,35.7780625 L46.9675243,32.7771275 C46.9675243,31.243487 45.7240467,30 44.1904197,30 L36.0138165,30 C36.0055266,30 36,30.0055266 36,30.0138165 L36,47.5 L36,64.986175 C36,64.9944 36.0055266,65 36.0138165,65 L44.1904197,65 C45.7240467,65 46.9675243,63.75645 46.9675243,62.222925 L46.9675243,59.22185 C46.9675243,55.997125 49.4738344,53.2421 52.6986057,53.1343 C56.0699041,53.021075 58.8359487,55.7208 58.8359487,59.06435 L58.8359487,62.23675 C58.8359487,63.76205 60.0738963,65 61.5991933,65 L70.986175,65 C70.9944,65 71,64.9944 71,64.986175 L71,56.207125 C71,54.676225 69.7592524,53.43565 68.2283554,53.43565 L65.0671616,53.43565 C61.7899429,53.43565 59.1343231,50.777225 59.1343231,47.5028 C59.1315231,44.2227225 61.7871429,41.56442 65.0643616,41.56442 Z" id="Path"></path>
                </g>
                <g id="Light-M" transform="translate(606.680000, 426.000000)">
                    <path d="M65.2339512,41.234008 L68.3048253,41.234008 C69.7919824,41.234008 70.99728,40.028742 70.99728,38.541599 L70.99728,30.0134218 C70.99728,30.0053687 70.99184,30 70.98385,30 L61.8677878,30 C60.3860707,30 59.183493,31.2025902 59.183493,32.684351 L59.183493,35.765992 C59.183493,39.014046 56.4964783,41.63667 53.2215026,41.526612 C50.0915537,41.421909 47.6541665,38.748302 47.6541665,35.612975 L47.6541665,32.697781 C47.6541665,31.2079588 46.4462168,30 44.9564077,30 L37.0134217,30 C37.0053687,30 37,30.0053687 37,30.0134218 L37,47 L37,63.98657 C37,63.99456 37.0053687,64 37.0134217,64 L44.9564077,64 C46.4462168,64 47.6541665,62.79198 47.6541665,61.30227 L47.6541665,58.38694 C47.6541665,55.25435 50.0888677,52.57804 53.2215026,52.47332 C56.4964783,52.36333 59.183493,54.98592 59.183493,58.23394 L59.183493,61.3157 C59.183493,62.79742 60.3860707,64 61.8677878,64 L70.98657,64 C70.99456,64 71,63.99456 71,63.98657 L71,55.45835 C71,53.97119 69.7947023,52.76606 68.3075452,52.76606 L65.2366712,52.76606 C62.0530874,52.76606 59.4733425,50.18359 59.4733425,47.00272 C59.4706225,43.816359 62.0503674,41.234008 65.2339512,41.234008 Z" id="Path"></path>
                </g>
                <g id="Thin-M" transform="translate(311.042000, 427.000000)">
                    <path d="M63.4035409,39.903596 L66.3840951,39.903596 C67.8275123,39.903596 68.99736,38.733779 68.99736,37.2903755 L68.99736,29.013027 C68.99736,29.0052108 68.99208,29 68.984325,29 L60.1363823,29 C58.6982451,29 57.5310373,30.1672199 57.5310373,31.6053995 L57.5310373,34.596404 C57.5310373,37.748927 54.9230524,40.294415 51.7443996,40.187594 C48.706508,40.0859705 46.3408086,37.490999 46.3408086,34.4478875 L46.3408086,31.6184345 C46.3408086,30.1724306 45.1683869,29 43.7223957,29 L36.013027,29 C36.0052108,29 36,29.0052108 36,29.013027 L36,45.5 L36,61.986965 C36,61.99472 36.0052108,62 36.013027,62 L43.7223957,62 C45.1683869,62 46.3408086,60.82751 46.3408086,59.381615 L46.3408086,56.55203 C46.3408086,53.511575 48.703901,50.91398 51.7443996,50.81234 C54.9230524,50.705585 57.5310373,53.25104 57.5310373,56.40353 L57.5310373,59.39465 C57.5310373,60.83279 58.6982451,62 60.1363823,62 L68.986965,62 C68.99472,62 69,61.99472 69,61.986965 L69,53.709575 C69,52.266155 67.8301523,51.09647 66.3867351,51.09647 L63.4061809,51.09647 C60.3162319,51.09647 57.8123618,48.589955 57.8123618,45.50264 C57.8097218,42.4099955 60.3135919,39.903596 63.4035409,39.903596 Z" id="Path"></path>
                </g>
                <g id="Ultralight-M" transform="translate(14.893000, 428.000000)">
                    <path d="M62.5731306,39.573184 L65.4633649,39.573184 C66.8630422,39.573184 67.99744,38.438816 67.99744,37.039152 L67.99744,29.0126322 C67.99744,29.0050529 67.99232,29 67.9848,29 L59.4049767,29 C58.0104195,29 56.8785817,30.1318496 56.8785817,31.526448 L56.8785817,34.426816 C56.8785817,37.483808 54.3496266,39.95216 51.2672966,39.848576 C48.3214623,39.750032 46.0274508,37.233696 46.0274508,34.2828 L46.0274508,31.539088 C46.0274508,30.1369024 44.890557,29 43.4883838,29 L36.0126322,29 C36.0050529,29 36,29.0050529 36,29.0126322 L36,45 L36,60.98736 C36,60.99488 36.0050529,61 36.0126322,61 L43.4883838,61 C44.890557,61 46.0274508,59.86304 46.0274508,58.46096 L46.0274508,55.71712 C46.0274508,52.7688 48.3189343,50.24992 51.2672966,50.15136 C54.3496266,50.04784 56.8785817,52.51616 56.8785817,55.57312 L56.8785817,58.4736 C56.8785817,59.86816 58.0104195,61 59.4049767,61 L67.98736,61 C67.99488,61 68,60.99488 68,60.98736 L68,52.9608 C68,51.56112 66.8656022,50.42688 65.4659249,50.42688 L62.5756906,50.42688 C59.5793764,50.42688 57.1513811,47.99632 57.1513811,45.00256 C57.1488211,42.003632 59.5768164,39.573184 62.5731306,39.573184 Z" id="Path"></path>
                </g>
                <g id="Black-S" transform="translate(2396.280000, 0.000000)">
                    <path d="M56.5555926,36.555656 L59.9877459,36.555656 C61.6498626,36.555656 62.99696,35.208594 62.99696,33.546493 L62.99696,24.0150008 C62.99696,24.0060003 62.99088,24 62.98195,24 L52.7934099,24 C51.1373731,24 49.7933157,25.3440714 49.7933157,27.000157 L49.7933157,30.444344 C49.7933157,34.074522 46.7901816,37.00569 43.1299147,36.882684 C39.6317365,36.765663 36.9075978,33.777514 36.9075978,30.273325 L36.9075978,27.015167 C36.9075978,25.3500716 35.5575365,24 33.8924557,24 L25.0150008,24 C25.0060003,24 25,24.0060003 25,24.0150008 L25,43 L25,61.98499 C25,61.99392 25.0060003,62 25.0150008,62 L33.8924557,62 C35.5575365,62 36.9075978,60.64986 36.9075978,58.98489 L36.9075978,55.72658 C36.9075978,52.22545 39.6287345,49.23428 43.1299147,49.11724 C46.7901816,48.99431 49.7933157,51.92544 49.7933157,55.55558 L49.7933157,58.9999 C49.7933157,60.65594 51.1373731,62 52.7934099,62 L62.98499,62 C62.99392,62 63,61.99392 63,61.98499 L63,52.45345 C63,50.79133 61.6529026,49.44442 59.9907859,49.44442 L56.5586325,49.44442 C53.0005095,49.44442 50.1172651,46.55813 50.1172651,43.00304 C50.1142251,39.441813 52.9974695,36.555656 56.5555926,36.555656 Z" id="Path"></path>
                </g>
                <g id="Heavy-S" transform="translate(2099.760000, 1.000000)">
                    <path d="M56.7251822,35.225244 L60.0670157,35.225244 C61.6853926,35.225244 62.99704,33.913631 62.99704,32.2952695 L62.99704,23.014606 C62.99704,23.0058424 62.99112,23 62.982425,23 L53.0620044,23 C51.4495475,23 50.1408601,24.3087011 50.1408601,25.9212055 L50.1408601,29.274756 C50.1408601,32.809403 47.2167557,35.663435 43.6528117,35.543666 C40.2466908,35.4297245 37.59424,32.520211 37.59424,29.1082375 L37.59424,25.9358205 C37.59424,24.3145434 36.2797066,23 34.6584437,23 L26.014606,23 C26.0058424,23 26,23.0058424 26,23.014606 L26,41.5 L26,59.985385 C26,59.99408 26.0058424,60 26.014606,60 L34.6584437,60 C36.2797066,60 37.59424,58.68539 37.59424,57.064235 L37.59424,53.89167 C37.59424,50.482675 40.2437678,47.57022 43.6528117,47.45626 C47.2167557,47.336565 50.1408601,50.19056 50.1408601,53.72517 L50.1408601,57.07885 C50.1408601,58.69131 51.4495475,60 53.0620044,60 L62.985385,60 C62.99408,60 63,59.99408 63,59.985385 L63,50.704675 C63,49.086295 61.6883526,47.77483 60.0699757,47.77483 L56.7281422,47.77483 C53.263654,47.77483 50.4562844,44.964495 50.4562844,41.50296 C50.4533244,38.0354495 53.260694,35.225244 56.7251822,35.225244 Z" id="Path"></path>
                </g>
                <g id="Bold-S" transform="translate(1803.270000, 2.000000)">
                    <path d="M55.8947719,34.894832 L59.1462856,34.894832 C60.7209225,34.894832 61.99712,33.618668 61.99712,32.044046 L61.99712,23.0142113 C61.99712,23.0056845 61.99136,23 61.9829,23 L52.3305988,23 C50.7617219,23 49.4884044,24.2733308 49.4884044,25.842254 L49.4884044,29.105168 C49.4884044,32.544284 46.6433299,35.32118 43.1757087,35.204648 C39.8616451,35.093786 37.2808822,32.262908 37.2808822,28.94315 L37.2808822,25.856474 C37.2808822,24.2790152 36.0018767,23 34.4244317,23 L26.0142113,23 C26.0056845,23 26,23.0056845 26,23.0142113 L26,41 L26,58.98578 C26,58.99424 26.0056845,59 26.0142113,59 L34.4244317,59 C36.0018767,59 37.2808822,57.72092 37.2808822,56.14358 L37.2808822,53.05676 C37.2808822,49.7399 39.8588011,46.90616 43.1757087,46.79528 C46.6433299,46.67882 49.4884044,49.45568 49.4884044,52.89476 L49.4884044,56.1578 C49.4884044,57.72668 50.7617219,59 52.3305988,59 L61.98578,59 C61.99424,59 62,58.99424 62,58.98578 L62,49.9559 C62,48.38126 60.7238025,47.10524 59.1491656,47.10524 L55.8976519,47.10524 C52.5267985,47.10524 49.7953038,44.37086 49.7953038,41.00288 C49.7924238,37.629086 52.5239185,34.894832 55.8947719,34.894832 Z" id="Path"></path>
                </g>
                <g id="Semibold-S" transform="translate(1506.700000, 3.000000)">
                    <path d="M55.0643616,33.56442 L58.2255554,33.56442 C59.7564524,33.56442 60.9972,32.323705 60.9972,30.7928225 L60.9972,22.0138165 C60.9972,22.0055266 60.9916,22 60.983375,22 L51.5991933,22 C50.0738963,22 48.8359487,23.2379605 48.8359487,24.7633025 L48.8359487,27.93558 C48.8359487,31.279165 46.0699041,33.978925 42.6986057,33.86563 C39.4765994,33.7578475 36.9675243,31.005605 36.9675243,27.7780625 L36.9675243,24.7771275 C36.9675243,23.243487 35.7240467,22 34.1904197,22 L26.0138165,22 C26.0055266,22 26,22.0055266 26,22.0138165 L26,39.5 L26,56.986175 C26,56.9944 26.0055266,57 26.0138165,57 L34.1904197,57 C35.7240467,57 36.9675243,55.75645 36.9675243,54.222925 L36.9675243,51.22185 C36.9675243,47.997125 39.4738344,45.2421 42.6986057,45.1343 C46.0699041,45.021075 48.8359487,47.7208 48.8359487,51.06435 L48.8359487,54.23675 C48.8359487,55.76205 50.0738963,57 51.5991933,57 L60.986175,57 C60.9944,57 61,56.9944 61,56.986175 L61,48.207125 C61,46.676225 59.7592524,45.43565 58.2283554,45.43565 L55.0671616,45.43565 C51.7899429,45.43565 49.1343231,42.777225 49.1343231,39.5028 C49.1315231,36.2227225 51.7871429,33.56442 55.0643616,33.56442 Z" id="Path"></path>
                </g>
                <g id="Medium-S" transform="translate(1210.090000, 4.000000)">
                    <path d="M54.2339512,33.234008 L57.3048253,33.234008 C58.7919824,33.234008 59.99728,32.028742 59.99728,30.541599 L59.99728,22.0134218 C59.99728,22.0053687 59.99184,22 59.98385,22 L50.8677878,22 C49.3860707,22 48.183493,23.2025902 48.183493,24.684351 L48.183493,27.765992 C48.183493,31.014046 45.4964783,33.63667 42.2215026,33.526612 C39.0915537,33.421909 36.6541665,30.748302 36.6541665,27.612975 L36.6541665,24.697781 C36.6541665,23.2079588 35.4462168,22 33.9564077,22 L26.0134217,22 C26.0053687,22 26,22.0053687 26,22.0134218 L26,39 L26,55.98657 C26,55.99456 26.0053687,56 26.0134217,56 L33.9564077,56 C35.4462168,56 36.6541665,54.79198 36.6541665,53.30227 L36.6541665,50.38694 C36.6541665,47.25435 39.0888677,44.57804 42.2215026,44.47332 C45.4964783,44.36333 48.183493,46.98592 48.183493,50.23394 L48.183493,53.3157 C48.183493,54.79742 49.3860707,56 50.8677878,56 L59.98657,56 C59.99456,56 60,55.99456 60,55.98657 L60,47.45835 C60,45.97119 58.7947023,44.76606 57.3075452,44.76606 L54.2366712,44.76606 C51.0530874,44.76606 48.4733425,42.18359 48.4733425,39.00272 C48.4706225,35.816359 51.0503674,33.234008 54.2339512,33.234008 Z" id="Path"></path>
                </g>
                <g id="Regular-S" transform="translate(913.530000, 5.000000)">
                    <path d="M54.4035409,31.903596 L57.3840951,31.903596 C58.8275123,31.903596 59.99736,30.733779 59.99736,29.2903755 L59.99736,21.013027 C59.99736,21.0052108 59.99208,21 59.984325,21 L51.1363823,21 C49.6982451,21 48.5310373,22.1672199 48.5310373,23.6053995 L48.5310373,26.596404 C48.5310373,29.748927 45.9230524,32.294415 42.7443996,32.187594 C39.706508,32.0859705 37.3408086,29.490999 37.3408086,26.4478875 L37.3408086,23.6184345 C37.3408086,22.1724306 36.1683869,21 34.7223957,21 L27.013027,21 C27.0052108,21 27,21.0052108 27,21.013027 L27,37.5 L27,53.986965 C27,53.99472 27.0052108,54 27.013027,54 L34.7223957,54 C36.1683869,54 37.3408086,52.82751 37.3408086,51.381615 L37.3408086,48.55203 C37.3408086,45.511575 39.703901,42.91398 42.7443996,42.81234 C45.9230524,42.705585 48.5310373,45.25104 48.5310373,48.40353 L48.5310373,51.39465 C48.5310373,52.83279 49.6982451,54 51.1363823,54 L59.986965,54 C59.99472,54 60,53.99472 60,53.986965 L60,45.709575 C60,44.266155 58.8301523,43.09647 57.3867351,43.09647 L54.4061809,43.09647 C51.3162319,43.09647 48.8123618,40.589955 48.8123618,37.50264 C48.8097218,34.4099955 51.3135919,31.903596 54.4035409,31.903596 Z" id="Path"></path>
                </g>
                <g id="Light-S" transform="translate(617.550000, 6.000000)">
                    <path d="M52.5731306,31.573184 L55.4633649,31.573184 C56.8630422,31.573184 57.99744,30.438816 57.99744,29.039152 L57.99744,21.0126322 C57.99744,21.0050529 57.99232,21 57.9848,21 L49.4049767,21 C48.0104195,21 46.8785817,22.1318496 46.8785817,23.526448 L46.8785817,26.426816 C46.8785817,29.483808 44.3496266,31.95216 41.2672966,31.848576 C38.3214623,31.750032 36.0274508,29.233696 36.0274508,26.2828 L36.0274508,23.539088 C36.0274508,22.1369024 34.890557,21 33.4883838,21 L26.0126322,21 C26.0050529,21 26,21.0050529 26,21.0126322 L26,37 L26,52.98736 C26,52.99488 26.0050529,53 26.0126322,53 L33.4883838,53 C34.890557,53 36.0274508,51.86304 36.0274508,50.46096 L36.0274508,47.71712 C36.0274508,44.7688 38.3189343,42.24992 41.2672966,42.15136 C44.3496266,42.04784 46.8785817,44.51616 46.8785817,47.57312 L46.8785817,50.4736 C46.8785817,51.86816 48.0104195,53 49.4049767,53 L57.98736,53 C57.99488,53 58,52.99488 58,52.98736 L58,44.9608 C58,43.56112 56.8656022,42.42688 55.4659249,42.42688 L52.5756906,42.42688 C49.5793764,42.42688 47.1513811,39.99632 47.1513811,37.00256 C47.1488211,34.003632 49.5768164,31.573184 52.5731306,31.573184 Z" id="Path"></path>
                </g>
                <g id="Thin-S" transform="translate(321.763000, 7.000000)">
                    <path d="M51.9123099,30.91236 L54.6219046,30.91236 C55.9341021,30.91236 56.9976,29.84889 56.9976,28.536705 L56.9976,21.0118427 C56.9976,21.0047371 56.9928,21 56.98575,21 L48.9421657,21 C47.6347682,21 46.5736703,22.061109 46.5736703,23.368545 L46.5736703,26.08764 C46.5736703,28.95357 44.2027749,31.26765 41.3130906,31.17054 C38.5513709,31.078155 36.4007351,28.71909 36.4007351,25.952625 L36.4007351,23.380395 C36.4007351,22.065846 35.3348972,21 34.0203598,21 L27.0118427,21 C27.0047371,21 27,21.0047371 27,21.0118427 L27,36 L27,50.98815 C27,50.9952 27.0047371,51 27.0118427,51 L34.0203598,51 C35.3348972,51 36.4007351,49.9341 36.4007351,48.61965 L36.4007351,46.0473 C36.4007351,43.28325 38.5490009,40.9218 41.3130906,40.8294 C44.2027749,40.73235 46.5736703,43.0464 46.5736703,45.9123 L46.5736703,48.6315 C46.5736703,49.9389 47.6347682,51 48.9421657,51 L56.98815,51 C56.9952,51 57,50.9952 57,50.98815 L57,43.46325 C57,42.15105 55.9365021,41.0877 54.6243046,41.0877 L51.9147099,41.0877 C49.1056654,41.0877 46.8294198,38.80905 46.8294198,36.0024 C46.8270198,33.190905 49.1032654,30.91236 51.9123099,30.91236 Z" id="Path"></path>
                </g>
                <g id="Ultralight-S" transform="translate(25.540000, 7.000000)">
                    <path d="M51.9123099,30.91236 L54.6219046,30.91236 C55.9341021,30.91236 56.9976,29.84889 56.9976,28.536705 L56.9976,21.0118427 C56.9976,21.0047371 56.9928,21 56.98575,21 L48.9421657,21 C47.6347682,21 46.5736703,22.061109 46.5736703,23.368545 L46.5736703,26.08764 C46.5736703,28.95357 44.2027749,31.26765 41.3130906,31.17054 C38.5513709,31.078155 36.4007351,28.71909 36.4007351,25.952625 L36.4007351,23.380395 C36.4007351,22.065846 35.3348972,21 34.0203598,21 L27.0118427,21 C27.0047371,21 27,21.0047371 27,21.0118427 L27,36 L27,50.98815 C27,50.9952 27.0047371,51 27.0118427,51 L34.0203598,51 C35.3348972,51 36.4007351,49.9341 36.4007351,48.61965 L36.4007351,46.0473 C36.4007351,43.28325 38.5490009,40.9218 41.3130906,40.8294 C44.2027749,40.73235 46.5736703,43.0464 46.5736703,45.9123 L46.5736703,48.6315 C46.5736703,49.9389 47.6347682,51 48.9421657,51 L56.98815,51 C56.9952,51 57,50.9952 57,50.98815 L57,43.46325 C57,42.15105 55.9365021,41.0877 54.6243046,41.0877 L51.9147099,41.0877 C49.1056654,41.0877 46.8294198,38.80905 46.8294198,36.0024 C46.8270198,33.190905 49.1032654,30.91236 51.9123099,30.91236 Z" id="Path"></path>
                </g>
            </g>
        </g>
    </g>
</svg>