<svg width="32" height="32" viewBox="0 0 32 32" fill="none" xmlns="http://www.w3.org/2000/svg">
<path d="M1.32004 24.2733H4.06471L5.61808 19.7182H12.1118L13.6536 24.2733H16.3983L10.2782 7.41978H7.45175L1.32004 24.2733ZM8.8416 10.2112H8.88832L11.3994 17.616H6.31884L8.8416 10.2112Z" fill="white"/>
<path d="M22.6981 24.4952C24.3216 24.4952 25.7464 23.6543 26.4589 22.3345H26.5056V24.2733H29.04V15.8057C29.04 13.3414 27.1363 11.7529 24.1347 11.7529C21.1097 11.7529 19.276 13.3763 19.1008 15.4903L19.0891 15.6188H21.4718L21.4952 15.5137C21.7053 14.5327 22.6046 13.8435 24.0646 13.8435C25.6297 13.8435 26.5056 14.6611 26.5056 16.0159V16.9386L23.1652 17.1372C20.2572 17.3123 18.5986 18.6204 18.5986 20.7578V20.7811C18.5986 22.9886 20.2454 24.4952 22.6981 24.4952ZM21.1447 20.7227V20.6993C21.1447 19.6599 21.9857 18.9941 23.504 18.9007L26.5056 18.7139V19.6716C26.5056 21.2717 25.1624 22.4747 23.3871 22.4747C22.0324 22.4747 21.1447 21.7973 21.1447 20.7227Z" fill="white"/>
</svg>
