<svg width="100" height="100" viewBox="0 0 100 100" fill="none" xmlns="http://www.w3.org/2000/svg">
<rect width="100" height="100" rx="50" fill="#AB9FF1"/>
<path d="M26.7706 75.7626C34.6272 75.7626 40.5316 68.9297 44.0551 63.5302C43.6266 64.7248 43.3886 65.9193 43.3886 67.0663C43.3886 70.2199 45.1979 72.4657 48.7692 72.4657C53.6735 72.4657 58.9114 68.1652 61.6255 63.5302C61.4351 64.1993 61.3398 64.8205 61.3398 65.3938C61.3398 67.5918 62.5779 68.9775 65.1013 68.9775C73.0533 68.9775 81.0528 54.8818 81.0528 42.5539C81.0528 32.9496 76.1959 24.4922 64.0064 24.4922C42.579 24.4922 19.4854 50.6769 19.4854 67.5918C19.4854 74.2336 23.0565 75.7626 26.7706 75.7626ZM56.6257 41.5027C56.6257 39.1136 57.959 37.4412 59.9114 37.4412C61.8159 37.4412 63.1492 39.1136 63.1492 41.5027C63.1492 43.8918 61.8159 45.6119 59.9114 45.6119C57.959 45.6119 56.6257 43.8918 56.6257 41.5027ZM66.8157 41.5027C66.8157 39.1136 68.149 37.4412 70.1011 37.4412C72.0057 37.4412 73.3389 39.1136 73.3389 41.5027C73.3389 43.8918 72.0057 45.6119 70.1011 45.6119C68.149 45.6119 66.8157 43.8918 66.8157 41.5027Z" fill="white"/>
</svg>
