<svg width="40" height="40" viewBox="0 0 40 40" fill="none" xmlns="http://www.w3.org/2000/svg">
<path d="M20 35L18.3953 35.4502L19.4523 39.2182L21.4365 35.845L20 35ZM36.6667 6.66667L38.1032 7.5117L39.5807 5H36.6667V6.66667ZM4.16666 6.66667V5H0.289154L2.95733 7.81353L4.16666 6.66667ZM15.3633 18.4733L16.968 18.023L16.8567 17.6258L16.5727 17.3265L15.3633 18.4733ZM35.8078 9.04812L37.2657 8.2402L35.6498 5.32468L34.1922 6.1326L35.8078 9.04812ZM21.4365 35.845L38.1032 7.5117L35.2302 5.82163L18.5635 34.155L21.4365 35.845ZM36.6667 5H4.16666V8.33333H36.6667V5ZM2.95733 7.81353L14.154 19.6202L16.5727 17.3265L5.37599 5.5198L2.95733 7.81353ZM13.7586 18.9235L18.3953 35.4502L21.6047 34.5498L16.8408 19.56L13.7586 18.9235ZM16.8408 19.56L35.8078 9.04812L34.1922 6.1326L15.225 16.6444L16.8408 19.56Z" fill="white"/>
</svg>
