<svg width="207" height="292" viewBox="0 0 207 292" fill="none" xmlns="http://www.w3.org/2000/svg">
<path d="M82.4927 41.2463C82.4927 18.4666 64.0261 0 41.2464 0C18.4666 0 2.12779e-05 18.4666 2.12779e-05 41.2463C2.12779e-05 64.0261 18.4666 82.4927 41.2464 82.4927C64.0261 82.4927 82.4927 64.0261 82.4927 41.2463Z" fill="white"/>
<path d="M41.2463 82.4944H123.739V0.00175481H41.2463V82.4944Z" fill="white"/>
<path d="M41.2463 82.4944H151.237V0.00175481H41.2463V82.4944Z" fill="white"/>
<path d="M123.739 82.4944H164.985V0.00175481H123.739V82.4944Z" fill="white"/>
<path d="M164.985 0.00175481C142.206 0.00175581 123.739 18.4684 123.739 41.2481C123.739 64.0278 142.206 82.4944 164.985 82.4944C187.765 82.4944 206.232 64.0278 206.232 41.2481C206.232 18.4684 187.765 0.00175381 164.985 0.00175481Z" fill="white"/>
<path d="M96.2414 145.734C96.2414 122.954 114.708 104.487 137.488 104.487C160.267 104.487 178.734 122.954 178.734 145.734C178.734 168.514 160.267 186.98 137.488 186.98C114.708 186.98 96.2414 168.514 96.2414 145.734Z" fill="white"/>
<path d="M123.739 186.98H41.2463V104.487H123.739V186.98Z" fill="white"/>
<path d="M137.488 186.98H41.2463V104.487H137.488V186.98Z" fill="white"/>
<path d="M41.2463 104.489C64.0261 104.489 82.4927 122.956 82.4927 145.736C82.4927 168.515 64.0261 186.982 41.2463 186.982C18.4666 186.982 -9.95734e-07 168.515 0 145.736C9.95734e-07 122.956 18.4666 104.489 41.2463 104.489Z" fill="white"/>
<path d="M41.2463 208.978C64.0261 208.978 82.4927 227.445 82.4927 250.225C82.4927 273.005 64.0261 291.471 41.2463 291.471C18.4666 291.471 -9.95734e-07 273.005 0 250.225C9.95734e-07 227.445 18.4666 208.978 41.2463 208.978Z" fill="white"/>
</svg>
