<svg width="36" height="36" viewBox="0 0 36 36" fill="none" xmlns="http://www.w3.org/2000/svg">
<path d="M21 15C23.4853 15 25.5 12.9853 25.5 10.5C25.5 8.01472 23.4853 6 21 6C18.5147 6 16.5 8.01472 16.5 10.5C16.5 12.9853 18.5147 15 21 15Z" stroke="white" stroke-width="3"/>
<path d="M19.2439 6C18.6262 4.25222 16.9593 3 15 3C12.5147 3 10.5 5.01473 10.5 7.5C10.5 9.98527 12.5147 12 15 12C15.6184 12 16.2076 11.8753 16.7439 11.6496" stroke="white" stroke-width="3"/>
<path d="M6 29.9999H7.5C7.5 29.9999 12.895 31.8599 16.5 31.4999C20.3496 31.1153 26.592 27.5618 29.0044 26.1116C29.631 25.7349 30 25.0572 30 24.3261C30 22.8926 28.618 21.8643 27.2449 22.2762L16.5 25.4999" stroke="white" stroke-width="3" stroke-linecap="square"/>
<path d="M6 21.7504L11.8737 19.7924C12.4519 19.5997 13.0632 19.5265 13.6705 19.577L21.0108 20.1887C21.4056 20.2217 21.6847 20.5897 21.6099 20.9788C21.2351 22.9282 19.808 24.508 17.9064 25.0784L16.5 25.5004" stroke="white" stroke-width="3" stroke-linecap="square"/>
</svg>
