<svg width="19" height="28" viewBox="0 0 19 28" fill="none" xmlns="http://www.w3.org/2000/svg">
<path fill-rule="evenodd" clip-rule="evenodd" d="M17.9943 27.7806C18.5173 27.7806 18.9413 27.3566 18.9413 26.8335L18.9413 0.947065C18.9413 0.424032 18.5173 -1.92588e-06 17.9943 -1.94875e-06L0.947086 -2.6939e-06C0.424052 -2.71677e-06 1.83619e-05 0.424031 1.83391e-05 0.947065L1.72075e-05 26.8335C1.71847e-05 27.3566 0.424051 27.7806 0.947084 27.7806L17.9943 27.7806ZM15.7845 25.2551L13.8903 25.2551L13.8903 22.0982L15.7845 22.0982L15.7845 25.2551ZM5.05104 5.6824L5.05104 2.52551L3.15691 2.52551L3.15691 5.6824L5.05104 5.6824ZM9.47068 17.0472C11.2142 17.0472 12.6276 15.6338 12.6276 13.8903C12.6276 12.1468 11.2142 10.7334 9.47068 10.7334C7.7272 10.7334 6.31379 12.1468 6.31379 13.8903C6.31379 15.6338 7.7272 17.0472 9.47068 17.0472Z" fill="white"/>
</svg>
