<svg width="41" height="41" viewBox="0 0 41 41" fill="none" xmlns="http://www.w3.org/2000/svg">
<path d="M35.7396 30.393C35.1777 31.6411 34.5127 32.7899 33.7423 33.8461C32.692 35.2861 31.832 36.2831 31.1693 36.8366C30.1422 37.7451 29.0413 38.2103 27.8626 38.2368C27.0164 38.2368 25.9962 38.0053 24.8083 37.5356C23.6166 37.0681 22.5214 36.8366 21.52 36.8366C20.4698 36.8366 19.3434 37.0681 18.1386 37.5356C16.932 38.0053 15.9599 38.2501 15.2167 38.2743C14.0864 38.3205 12.9598 37.842 11.8353 36.8366C11.1175 36.2344 10.2198 35.2024 9.14433 33.7405C7.99042 32.179 7.04178 30.3685 6.29858 28.3046C5.50264 26.075 5.10364 23.9161 5.10364 21.826C5.10364 19.4318 5.64159 17.3669 6.71912 15.6364C7.56597 14.2465 8.69258 13.15 10.1026 12.3451C11.5126 11.5402 13.0362 11.1301 14.6769 11.1038C15.5747 11.1038 16.7519 11.3709 18.2149 11.8957C19.6738 12.4223 20.6105 12.6894 21.0212 12.6894C21.3283 12.6894 22.3689 12.3771 24.133 11.7546C25.8013 11.1772 27.2091 10.9382 28.3625 11.0324C31.488 11.2749 33.8362 12.4598 35.3979 14.5945C32.6027 16.2232 31.2198 18.5045 31.2474 21.4311C31.2726 23.7106 32.1326 25.6075 33.8224 27.1136C34.5885 27.8128 35.4439 28.3531 36.3954 28.7368C36.189 29.3123 35.9711 29.8637 35.7396 30.393ZM28.5713 3.26647C28.5713 5.05316 27.8925 6.7214 26.5395 8.26548C24.9069 10.1011 22.9321 11.1618 20.7905 10.9944C20.7633 10.7801 20.7474 10.5545 20.7474 10.3174C20.7474 8.60222 21.5239 6.76659 22.9027 5.26573C23.5911 4.5058 24.4666 3.87394 25.5282 3.3699C26.5877 2.87336 27.5898 2.59876 28.5322 2.55176C28.5598 2.79061 28.5713 3.02951 28.5713 3.26647Z" fill="white"/>
</svg>
