<svg width="128" height="128" viewBox="0 0 128 128" fill="none" xmlns="http://www.w3.org/2000/svg">
<path d="M74.6667 53.333C83.5032 53.333 90.6667 46.1696 90.6667 37.333C90.6667 28.4965 83.5032 21.333 74.6667 21.333C65.8301 21.333 58.6667 28.4965 58.6667 37.333C58.6667 46.1696 65.8301 53.333 74.6667 53.333Z" stroke="white" stroke-width="6"/>
<path d="M68.4229 21.3337C66.2266 15.1193 60.2997 10.667 53.3333 10.667C44.4968 10.667 37.3333 17.8305 37.3333 26.667C37.3333 35.5035 44.4968 42.667 53.3333 42.667C55.5322 42.667 57.6272 42.2235 59.5338 41.4211" stroke="white" stroke-width="6"/>
<path d="M21.3333 106.668H26.6666C26.6666 106.668 45.849 113.281 58.6666 112.001C72.3541 110.633 94.5493 97.9988 103.127 92.8425C105.355 91.5033 106.667 89.0937 106.667 86.4943C106.667 81.3972 101.753 77.7412 96.8709 79.2057L58.6666 90.6676" stroke="white" stroke-width="6" stroke-linecap="square"/>
<path d="M21.3333 77.3334L42.2177 70.3718C44.2734 69.6865 46.4468 69.4262 48.6061 69.606L74.705 71.7809C76.1088 71.8982 77.1013 73.2065 76.8352 74.59C75.5024 81.5212 70.4282 87.1382 63.6672 89.1665L58.6666 90.6668" stroke="white" stroke-width="6" stroke-linecap="square"/>
</svg>
