<svg width="28" height="28" viewBox="0 0 28 28" fill="none" xmlns="http://www.w3.org/2000/svg">
<path d="M7.29167 5.1527C7.29167 3.59556 8.55398 2.33325 10.1111 2.33325C11.7168 2.33325 13.137 3.12766 14 4.3449C14.863 3.12766 16.2832 2.33325 17.8888 2.33325C19.446 2.33325 20.7083 3.59556 20.7083 5.1527C20.7083 6.29615 20.3055 7.34551 19.6339 8.16659H24.5V13.1249H14.875V8.16659H15.9445C17.609 8.16659 18.9583 6.81722 18.9583 5.1527C18.9583 4.56206 18.4795 4.08325 17.8888 4.08325C16.2244 4.08325 14.875 5.43262 14.875 7.09714V8.16659H13.125V7.09714C13.125 5.43262 11.7756 4.08325 10.1111 4.08325C9.52048 4.08325 9.04167 4.56206 9.04167 5.1527C9.04167 6.81722 10.391 8.16659 12.0555 8.16659H13.125V13.1249H3.5V8.16659H8.36605C7.69452 7.34551 7.29167 6.29615 7.29167 5.1527Z" fill="white"/>
<path d="M14.875 14.875H23.3333V24.5H14.875V14.875Z" fill="white"/>
<path d="M13.125 14.875H4.66663V24.5H13.125V14.875Z" fill="white"/>
</svg>
