<svg width="38" height="38" viewBox="0 0 38 38" fill="none" xmlns="http://www.w3.org/2000/svg">
<circle cx="18.9561" cy="18.9561" r="16.9781" fill="white" stroke="#19191A" stroke-width="3.95626"/>
<path d="M27.4575 22.4138C27.7139 22.4138 27.8419 22.7235 27.6603 22.9044L24.8894 25.6754C24.7816 25.7832 24.6355 25.8439 24.483 25.8439H10.4546C10.3977 25.844 10.3421 25.8271 10.2948 25.7956C10.2475 25.764 10.2104 25.7192 10.1886 25.6666C10.167 25.6141 10.1608 25.5564 10.172 25.5007C10.1831 25.445 10.2106 25.3934 10.2509 25.3533L13.0219 22.5823C13.1295 22.4747 13.2769 22.414 13.4291 22.4138H27.4575Z" fill="#19191A"/>
<path d="M24.483 17.2072C24.6352 17.2075 24.7809 17.2682 24.8885 17.3758L27.6603 20.1476C27.8418 20.3285 27.7139 20.6382 27.4575 20.6382H13.4291C13.2746 20.6382 13.1281 20.5759 13.0219 20.4697L10.2509 17.6979C10.2107 17.6578 10.1831 17.6061 10.172 17.5504C10.1608 17.4948 10.1669 17.437 10.1886 17.3845C10.2104 17.332 10.2475 17.2871 10.2948 17.2555C10.3421 17.224 10.3978 17.2072 10.4546 17.2072H24.483Z" fill="#19191A"/>
<path d="M27.4575 12.0674C27.7139 12.0674 27.8419 12.3764 27.6603 12.558L24.8894 15.3289C24.7816 15.4367 24.6354 15.4974 24.483 15.4975H10.4546C10.3978 15.4976 10.3421 15.4807 10.2948 15.4492C10.2475 15.4176 10.2104 15.3727 10.1886 15.3202C10.167 15.2677 10.1609 15.2099 10.172 15.1543C10.1831 15.0986 10.2107 15.0469 10.2509 15.0068L13.0219 12.235L13.0227 12.2359C13.1326 12.129 13.2797 12.0674 13.4291 12.0674H27.4575Z" fill="#19191A"/>
</svg>
