<svg width="20" height="20" viewBox="0 0 20 20" fill="none" xmlns="http://www.w3.org/2000/svg">
<g opacity="0.5">
<path d="M6.25999 17.5489C6.41324 17.3459 6.6877 17.2815 6.92127 17.3804C8.04684 17.8567 9.28652 18.0754 10.5517 17.9853C10.8041 17.9673 11.0422 18.1156 11.1217 18.356C11.2251 18.6689 11.0213 19.0014 10.6928 19.0274C9.21175 19.1447 7.75942 18.888 6.44747 18.3202C6.14646 18.1899 6.06179 17.8115 6.25999 17.5489Z" fill="white"/>
<path d="M18.1964 11.6881C18.5318 11.6826 18.788 11.9868 18.7024 12.3118C18.1267 14.497 16.7477 16.4195 14.8146 17.65C14.5363 17.8272 14.1749 17.6835 14.0718 17.3705C13.9928 17.1307 14.0949 16.8696 14.307 16.7323C15.971 15.6549 17.1611 13.9932 17.6742 12.1059C17.7392 11.867 17.9494 11.6922 18.1964 11.6881Z" fill="white"/>
<path d="M1.94437 12.9169C2.22514 12.7607 2.57717 12.8965 2.70408 13.1913C2.9844 13.8424 3.34454 14.441 3.76946 14.9788C3.92526 15.1759 3.93714 15.4548 3.78532 15.6559C3.5866 15.919 3.19824 15.9394 2.99252 15.6827C2.47989 15.0432 2.04901 14.3262 1.71941 13.5432C1.62076 13.3088 1.72193 13.0407 1.94437 12.9169Z" fill="white"/>
<path d="M17.3969 5.91701C17.6527 5.74943 17.9975 5.83405 18.1278 6.11015C18.3586 6.59892 18.5492 7.11531 18.6933 7.65662C18.9182 8.50093 19.0149 9.34927 18.9982 10.1815C18.9927 10.451 18.7695 10.661 18.5003 10.6654C18.1938 10.6704 17.9521 10.4095 17.956 10.1026C17.9653 9.38546 17.8789 8.6552 17.6854 7.92838C17.563 7.46897 17.4021 7.0302 17.2086 6.61368C17.0936 6.36612 17.1682 6.06684 17.3969 5.91701Z" fill="white"/>
<path d="M2.70557 5.783C2.91695 5.94146 2.97615 6.23183 2.85978 6.46989C2.26363 7.68941 1.97262 9.06458 2.05687 10.4729C2.0697 10.6874 1.96394 10.894 1.77625 10.9985C1.45085 11.1797 1.04642 10.9809 1.02106 10.6094C0.90905 8.96854 1.24743 7.36534 1.95099 5.9505C2.09164 5.66763 2.45357 5.59409 2.70557 5.783Z" fill="white"/>
<path d="M16.1696 4.00572C16.3794 3.868 16.6582 3.89912 16.8204 4.09001C17.0151 4.31932 16.955 4.66641 16.7029 4.83182L16.6509 4.86592C16.4488 4.99854 16.1796 4.9515 16.022 4.7689C15.831 4.5476 15.8676 4.20393 16.1125 4.04317L16.1696 4.00572Z" fill="white"/>
<path d="M8.87768 1.64391C8.77424 1.33099 8.97815 0.99851 9.30657 0.97254C11.3367 0.812004 13.3132 1.35525 14.9474 2.4364C15.2523 2.6381 15.2332 3.08026 14.9268 3.28129C14.7418 3.40263 14.5027 3.39641 14.3176 3.27622C12.9003 2.35563 11.1979 1.88987 9.44781 2.01459C9.19533 2.03259 8.95716 1.88433 8.87768 1.64391Z" fill="white"/>
<path d="M5.9275 2.62906C6.00655 2.86904 5.90436 3.13041 5.69205 3.26789C4.96916 3.73598 4.33543 4.31438 3.80772 4.97367C3.62235 5.20527 3.28663 5.26128 3.05009 5.08369C2.82472 4.91449 2.77329 4.59526 2.94814 4.37315C3.56802 3.5857 4.32085 2.89851 5.18396 2.34914C5.46257 2.1718 5.82428 2.31572 5.9275 2.62906Z" fill="white"/>
<path d="M6.68053 14.8257C6.85905 14.7066 7.09004 14.708 7.27579 14.8145C8.49079 15.511 9.96782 15.746 11.4252 15.3531C11.8202 15.2466 12.1934 15.099 12.5418 14.9166C12.8472 14.7567 13.2404 14.8959 13.3349 15.2271C13.3965 15.4431 13.3082 15.6761 13.1108 15.7836C12.6705 16.0233 12.1959 16.2161 11.6913 16.3521C9.9254 16.8282 8.13523 16.5278 6.67667 15.6602C6.36202 15.4731 6.37528 15.0295 6.68053 14.8257Z" fill="white"/>
<path d="M13.6248 5.09495C13.8031 4.90307 14.0988 4.87568 14.2953 5.04781C15.2418 5.87684 15.962 6.98776 16.3113 8.29911C16.662 9.61594 16.5883 10.946 16.1758 12.1439C16.0074 12.633 15.37 12.5657 15.2287 12.0688C15.1949 11.9499 15.2003 11.8236 15.2383 11.7057C15.5554 10.7227 15.6042 9.63939 15.3186 8.56677C15.0314 7.48876 14.4472 6.57088 13.6784 5.87793C13.4517 5.6736 13.4164 5.31911 13.6248 5.09495Z" fill="white"/>
<path d="M6.16775 5.32127C6.3533 5.54042 6.3217 5.86819 6.11833 6.07195C4.76713 7.42576 4.15253 9.44848 4.6813 11.4347C4.72945 11.6155 4.78639 11.7918 4.85111 11.9632C4.9424 12.2051 4.86703 12.484 4.65176 12.6276C4.39088 12.8018 4.03571 12.7083 3.92185 12.4165C3.83182 12.1857 3.75379 11.9474 3.68853 11.7024C3.0526 9.31369 3.81008 6.88058 5.45873 5.27422C5.6615 5.07665 5.98527 5.10575 6.16775 5.32127Z" fill="white"/>
<path d="M8.30889 3.65045C8.82915 3.51018 9.35157 3.43761 9.86703 3.42697C10.3198 3.41762 10.5127 3.94647 10.2038 4.27902C10.0964 4.39472 9.94546 4.45855 9.78801 4.46469C9.38613 4.48037 8.97971 4.54034 8.57492 4.64947C8.24448 4.73857 7.92927 4.85628 7.63103 4.99903C7.40201 5.10865 7.12423 5.06336 6.96039 4.86997C6.75317 4.62539 6.81195 4.25135 7.09951 4.10839C7.47963 3.91943 7.8837 3.7651 8.30889 3.65045Z" fill="white"/>
<path d="M13.3287 9.99012C13.3287 11.8064 11.8552 13.2788 10.0377 13.2788C8.22012 13.2788 6.74669 11.8064 6.74669 9.99012C6.74669 8.17382 8.22012 6.70142 10.0377 6.70142C11.8552 6.70142 13.3287 8.17382 13.3287 9.99012Z" fill="white"/>
</g>
</svg>
