<svg width="18" height="18" viewBox="0 0 18 18" fill="none" xmlns="http://www.w3.org/2000/svg">
<g opacity="0.4" clip-path="url(#clip0_2277_1102)">
<path d="M1.88219 8.31966C6.31108 6.39051 9.26367 5.11857 10.74 4.50408C14.96 2.74937 15.8358 2.44462 16.4078 2.43429C16.5336 2.43228 16.8137 2.46337 16.9964 2.61112C17.1483 2.73572 17.191 2.90424 17.2124 3.02256C17.2314 3.14076 17.2575 3.41015 17.2361 3.62043C17.0083 6.02238 16.0186 11.8511 15.5154 14.5415C15.3041 15.6798 14.884 16.0614 14.4782 16.0987C13.5952 16.1799 12.9259 15.5158 12.0715 14.9559C10.7352 14.0794 9.98045 13.5339 8.68217 12.6788C7.18214 11.6905 8.15526 11.1472 9.00971 10.2595C9.23281 10.0271 13.1206 6.49185 13.1941 6.1712C13.2036 6.13109 13.2131 5.98156 13.1229 5.90276C13.0351 5.82372 12.9046 5.85078 12.8096 5.87214C12.6743 5.90252 10.5406 7.31426 6.40127 10.1071C5.79603 10.5234 5.24776 10.7264 4.75408 10.7157C4.21293 10.704 3.16861 10.409 2.39248 10.157C1.4431 9.8477 0.685959 9.68417 0.752416 9.15892C0.785645 8.8855 1.16303 8.60566 1.88219 8.31966Z" fill="white"/>
</g>
<defs>
<clipPath id="clip0_2277_1102">
<rect width="17.2441" height="17.6321" fill="white"/>
</clipPath>
</defs>
</svg>
