<svg width="21" height="26" viewBox="0 0 21 26" fill="none" xmlns="http://www.w3.org/2000/svg">
<path fill-rule="evenodd" clip-rule="evenodd" d="M0.970716 0C0.434609 0 0 0.434609 0 0.970716V24.2679C0 24.6113 0.181472 24.9291 0.477217 25.1037C0.772949 25.2783 1.13895 25.2838 1.43965 25.1179L5.66251 22.788L9.88538 25.1179C10.1772 25.2789 10.5314 25.2789 10.8232 25.1179L15.0461 22.788L19.269 25.1179C19.5696 25.2838 19.9357 25.2783 20.2314 25.1037C20.5271 24.9291 20.7086 24.6113 20.7086 24.2679V0.970716C20.7086 0.434609 20.274 0 19.7379 0H0.970716ZM6.47144 15.2079C6.47144 14.6718 6.90605 14.2372 7.44216 14.2372H13.2665C13.8025 14.2372 14.2372 14.6718 14.2372 15.2079C14.2372 15.744 13.8025 16.1786 13.2665 16.1786H7.44216C6.90605 16.1786 6.47144 15.744 6.47144 15.2079ZM13.6292 7.86974C14.0083 7.49065 14.0083 6.87602 13.6292 6.49694C13.2501 6.11785 12.6356 6.11785 12.2565 6.49694L9.31887 9.43454L8.45209 8.5678C8.07299 8.1887 7.45841 8.1887 7.07933 8.5678C6.70024 8.94688 6.70024 9.5615 7.07933 9.9406L8.63251 11.4938C8.81449 11.6758 9.06144 11.778 9.31887 11.778C9.57631 11.778 9.82326 11.6758 10.0052 11.4938L13.6292 7.86974Z" fill="white"/>
</svg>
