<svg width="36" height="34" viewBox="0 0 36 34" fill="none" xmlns="http://www.w3.org/2000/svg">
<path d="M17.9997 3.25684C13.9523 3.25684 10.6713 6.53791 10.6713 10.5853C10.6713 14.6327 13.9523 17.9138 17.9997 17.9138C22.0472 17.9138 25.3282 14.6327 25.3282 10.5853C25.3282 6.53791 22.0472 3.25684 17.9997 3.25684Z" fill="white"/>
<path d="M17.9998 20.3564C10.4826 20.3564 5.22339 25.9093 4.56964 32.8634C4.53746 33.2057 4.65103 33.5457 4.8825 33.8C5.11396 34.0542 5.44186 34.1991 5.78568 34.1991H30.2139C30.5577 34.1991 30.8857 34.0542 31.1171 33.8C31.3485 33.5457 31.4622 33.2057 31.43 32.8634C30.7763 25.9093 25.517 20.3564 17.9998 20.3564Z" fill="white"/>
</svg>
