<svg width="24" height="24" viewBox="0 0 24 24" fill="none" xmlns="http://www.w3.org/2000/svg">
<path fill-rule="evenodd" clip-rule="evenodd" d="M12.0002 2C9.23877 2 7.00019 4.23858 7.00019 7V9C5.34334 9 4.00019 10.3431 4.00019 12V19C4.00019 20.6569 5.34334 22 7.00019 22H17.0002C18.6571 22 20.0002 20.6569 20.0002 19V12C20.0002 10.3431 18.6571 9 17.0002 9V7C17.0002 4.23858 14.7616 2 12.0002 2ZM15.0002 9V7C15.0002 5.34315 13.6571 4 12.0002 4C10.3433 4 9.00019 5.34315 9.00019 7V9H15.0002ZM12.0002 13C12.5525 13 13.0002 13.4477 13.0002 14V17C13.0002 17.5523 12.5525 18 12.0002 18C11.4479 18 11.0002 17.5523 11.0002 17V14C11.0002 13.4477 11.4479 13 12.0002 13Z" fill="white"/>
</svg>
