<svg width="100" height="100" viewBox="0 0 100 100" fill="none" xmlns="http://www.w3.org/2000/svg">
<path d="M50 100C77.7085 100 100 77.7085 100 50C100 22.2915 77.7085 0 50 0C22.2915 0 0 22.2915 0 50C0 77.7085 22.2915 100 50 100Z" fill="#2775CA"/>
<path fill-rule="evenodd" clip-rule="evenodd" d="M59.5875 15.6274C59.7956 14.7941 60.6291 14.3782 61.4625 14.7944C72.9205 18.5441 82.0875 27.5016 85.8375 39.3755C92.0875 59.1652 81.254 80.2052 61.4625 86.4546C61.254 86.6624 60.838 86.6626 60.6295 86.6626C59.7961 86.4546 59.3796 85.8298 59.3795 84.9966V82.0796C59.3796 81.038 59.7961 80.413 60.6295 79.9966C69.171 76.8718 76.0456 70.2057 79.1705 61.4565C85.2124 45.4161 76.8794 27.2929 60.6295 21.4604C60.0046 21.0435 59.3796 20.2108 59.3795 19.3774V16.4614C59.3795 16.0445 59.3791 15.8359 59.5875 15.6274ZM39.3795 14.5864C40.2129 14.7944 40.6295 15.4191 40.6295 16.2524V19.1685C40.6295 20.2104 40.213 20.836 39.3795 21.2524C30.8381 24.3771 23.9626 31.0424 20.8375 39.7915C14.7955 55.832 23.1295 73.9561 39.3795 79.7886C40.0043 80.2055 40.6292 81.0378 40.6295 81.6626V84.5796C40.6295 84.996 40.629 85.2046 40.4205 85.4126C40.2125 86.246 39.379 86.663 38.5455 86.2466C26.8791 82.4969 17.9205 73.5389 14.1705 61.8735C7.92058 42.084 18.7543 21.044 38.5455 14.7944C38.754 14.5865 39.171 14.5864 39.3795 14.5864ZM51.4625 25.4194C52.5039 25.6279 53.1284 26.2531 53.1285 27.0864V32.0864C57.9199 32.5029 61.6699 36.0436 62.5035 40.6265V40.8354C62.5035 41.6683 61.879 42.2934 61.0455 42.2935H57.7125C57.0875 42.2935 56.462 41.8764 56.2535 41.2515C55.212 38.1271 53.1283 36.8774 49.3785 36.8774C45.2124 36.8776 43.1285 38.7518 43.1285 41.6685C43.1286 44.585 44.3791 46.251 50.6285 47.0845C59.3784 48.1259 63.7534 50.6259 63.7535 57.9165C63.7535 63.541 59.5875 67.9156 53.3375 68.9575V73.9575C53.129 74.9988 52.504 75.6235 51.6705 75.6235H48.5455C47.5041 75.4151 46.8786 74.7904 46.8785 73.9575V68.9575C40.0039 67.9155 36.6705 64.1659 35.8375 58.9585V58.7505C35.8375 57.9171 36.4625 57.2915 37.2955 57.2915H40.8375C41.4625 57.2915 42.0875 57.7088 42.2955 58.5415C42.9205 61.6662 44.7955 63.9585 50.2125 63.9585C54.1705 63.9585 57.0875 61.6667 57.0875 58.3335C57.0874 55.0005 55.2119 53.7508 49.3785 52.7095C40.6289 51.6675 36.4626 48.9596 36.4625 42.0854C36.4625 36.8774 40.4205 32.7109 46.6705 31.8774V27.0864C46.8791 26.0447 47.5041 25.4194 48.3375 25.4194H51.4625Z" fill="white"/>
</svg>
