<svg width="24" height="24" viewBox="0 0 24 24" fill="none" xmlns="http://www.w3.org/2000/svg">
<path fill-rule="evenodd" clip-rule="evenodd" d="M18.3707 13C18.6823 13 18.9614 13.193 19.0718 13.4844L19.2916 14.0635C19.4179 14.3965 19.7613 14.595 20.1129 14.5381L20.7252 14.4385C21.0326 14.3886 21.3389 14.534 21.4947 14.8037L21.7984 15.3291C21.9498 15.5917 21.9282 15.9196 21.7437 16.1602L21.3228 16.71C21.1111 16.986 21.1164 17.3712 21.3365 17.6406L21.7974 18.2041C21.9946 18.4455 22.0216 18.7838 21.8658 19.0537L21.5631 19.5791C21.4115 19.8416 21.1166 19.9866 20.816 19.9473L20.1285 19.8574C19.7837 19.8123 19.453 20.0099 19.3297 20.335L19.0718 21.0156C18.9614 21.3071 18.6824 21.5 18.3707 21.5H17.7642C17.4611 21.5 17.1881 21.3171 17.0718 21.0371L16.7652 20.2998C16.6352 19.9866 16.3114 19.7997 15.9752 19.8438L15.1842 19.9473C14.8836 19.9868 14.5888 19.8416 14.4371 19.5791L14.1334 19.0537C13.9776 18.784 14.0049 18.4455 14.2017 18.2041L14.6627 17.6396C14.882 17.3704 14.8875 16.9857 14.6763 16.71L14.2554 16.1602C14.0712 15.9195 14.0502 15.5916 14.2017 15.3291L14.5045 14.8037C14.6603 14.5338 14.9674 14.3885 15.275 14.4385L15.9927 14.5557C16.3358 14.6113 16.6719 14.4235 16.8052 14.1025L17.0718 13.4619C17.1882 13.1823 17.4613 13 17.7642 13H18.3707ZM17.9996 15.5C17.0332 15.5002 16.2496 16.2836 16.2496 17.25C16.2496 18.2164 17.0332 18.9998 17.9996 19C18.9661 19 19.7496 18.2165 19.7496 17.25C19.7496 16.2835 18.9661 15.5 17.9996 15.5Z" fill="white"/>
<path d="M12.0004 12.5C12.8277 12.5 13.6103 12.611 14.3402 12.8154C13.0639 13.8701 12.2504 15.465 12.2504 17.25C12.2504 18.6834 12.7763 19.993 13.6439 21H4.50036C4.28932 21 4.08779 20.9109 3.94567 20.7549C3.80354 20.5988 3.73353 20.3899 3.75329 20.1797C4.15477 15.9096 7.38452 12.5 12.0004 12.5Z" fill="white"/>
<path d="M12.0003 2C14.4853 2.00028 16.5003 4.01489 16.5003 6.5C16.5003 8.98511 14.4853 10.9997 12.0003 11C9.51501 11 7.50029 8.98528 7.50029 6.5C7.50029 4.01472 9.51501 2 12.0003 2Z" fill="white"/>
</svg>
